<svg width="579" height="420" viewBox="0 0 579 420" fill="none" xmlns="http://www.w3.org/2000/svg">
<path d="M39.2418 145.046C39.985 145.04 40.7405 144.966 41.4837 144.973C45.2927 144.997 48.8726 147.084 52.6692 147.397C57.0604 147.76 61.4639 145.734 65.8118 146.495C68.8156 147.017 71.5159 148.828 74.4331 149.822C84.1754 153.144 94.3638 147.011 104.527 146.483C108.64 146.268 112.727 146.998 116.84 146.925C118.432 146.9 126.613 146.059 122.012 142.818C118.37 140.252 113.923 139.632 109.625 139.435C105.438 139.245 101.239 139.14 97.0951 138.551C93.6453 138.066 91.4095 135.525 88.418 133.658C83.7729 130.761 77.7777 130.57 72.9839 133.161C68.7042 135.475 65.9976 137.059 61.1667 137.686C55.9146 138.367 50.6253 138.717 45.3361 138.735C42.9144 138.741 39.5451 137.747 37.2659 138.637C35.86 139.183 34.6709 140.829 35.0239 142.462C35.315 143.818 36.5537 144.678 37.7738 144.93C38.2631 145.022 38.7525 145.046 39.2418 145.046Z" fill="white"/>
<path d="M515.979 107.15C511.216 107.291 505.952 106.677 501.368 108.249C496.03 110.078 493.509 116.972 501.443 116.708C503.901 116.628 506.336 115.8 508.776 116.094C512.907 116.591 516.672 119.784 520.971 119.207C523.101 118.918 524.532 118.126 526.805 118.261C533.426 118.648 539.359 120.993 545.788 117.782C547.504 116.929 549.089 115.8 550.898 115.155C555.704 113.442 561.061 115.437 566.115 114.713C571.702 113.915 573.163 108.807 566.852 107.549C560.423 106.266 553.747 108.427 547.38 106.603C545.274 106.002 543.317 104.976 541.236 104.277C537.829 103.122 534.12 102.865 530.589 103.528C526.861 104.227 523.393 105.916 519.701 106.787C518.723 107.015 517.441 107.107 515.979 107.15Z" fill="white"/>
<path d="M576.63 286.054C572.908 305.06 564.677 323.299 553.002 338.862C544.164 350.636 533.251 361.14 520.077 367.844C501.169 377.464 479.021 378.63 457.827 377.065C427.924 374.855 398.103 367.617 368.281 370.748C353.64 372.283 339.104 376.316 324.437 375.082C305.919 373.523 296.121 359.667 280.173 355.425C265.816 351.606 251.206 344.534 236.781 348.101C226.444 350.655 218.3 358.255 209.53 364.259C175.818 387.342 129.014 386.881 92.5654 368.323C80.8535 362.362 72.3251 353.927 62.0686 346.407C51.8556 338.911 41.7354 334.043 33.4051 323.993C17.7046 305.06 10.0372 279.172 15.0849 254.96C23.2789 215.682 48.765 176.81 92.2619 173.329C117.569 171.303 143.166 181.267 161.926 198.229C166.503 202.373 170.771 206.958 176.091 210.114C191.11 219.034 210.799 214.442 225.911 205.669C241.023 196.897 253.726 184.373 269.222 176.282C300.753 159.823 340.305 164.231 371.929 180.505C380.972 185.159 389.754 190.794 399.738 192.826C418.851 196.725 426.073 182.353 439.488 172.697C458.428 159.062 487.964 155.133 509.957 162.923C545.242 175.428 571.744 209.856 577.503 245.978C579.628 259.281 579.213 272.855 576.63 286.054Z" fill="white"/>
<path d="M322.47 114.952L318.339 116.935L322.389 114.829C322.402 114.848 322.408 114.866 322.426 114.884C322.439 114.909 322.451 114.927 322.47 114.952Z" fill="#F9C358"/>
<path d="M324.983 115.492C324.946 115.511 309.79 122.626 309.79 122.626C309.382 122.822 308.911 122.877 308.465 122.779C308.193 122.724 307.889 122.632 307.685 122.435C307.635 122.392 307.604 122.35 307.573 122.307C307.468 122.129 307.524 121.944 307.561 121.717C307.666 121.128 308.025 120.606 308.539 120.299L322.791 111.815C322.945 112.3 323.168 112.828 323.49 113.405L323.497 113.411L323.447 113.436C323.639 113.601 323.757 113.859 323.881 114.093L319.83 116.198L323.955 114.215C323.974 114.258 324.004 114.301 324.029 114.338C324.116 114.449 324.865 115.547 324.983 115.492Z" fill="#F9C358"/>
<path d="M340.849 112.718C340.88 112.693 340.905 112.681 340.936 112.656C341.159 112.509 341.363 112.331 341.543 112.135C342.336 111.263 342.62 110.004 342.28 108.813C342.28 108.807 342.28 108.795 342.267 108.789C342.206 108.617 342.125 108.451 342.032 108.279L338.403 101.563C338.322 101.397 338.223 101.25 338.118 101.109C338.118 101.103 338.118 101.103 338.105 101.103C337.3 100.139 336.062 99.66 334.866 99.8258C334.625 99.8626 334.389 99.924 334.154 100.01C334.129 100.016 334.111 100.028 334.086 100.034C333.807 100.139 333.535 100.255 333.275 100.372C332.519 100.219 331.701 100.28 330.933 100.587C329.905 100.986 328.945 101.434 328.053 101.925L328.004 101.95C324.003 104.184 321.563 107.236 321.507 110.287C321.501 110.833 321.563 111.49 321.792 112.251C321.947 112.748 322.176 113.289 322.51 113.872C322.64 114.117 322.77 114.351 322.907 114.566C323.266 115.143 323.656 115.615 324.028 115.99C324.393 116.352 324.746 116.628 325.074 116.843C328.01 118.783 332.494 118.421 337.077 116.045C337.084 116.045 337.09 116.039 337.096 116.033C337.604 115.775 338.112 115.486 338.607 115.179C339.462 114.652 340.056 113.878 340.36 113.006C340.521 112.914 340.682 112.816 340.849 112.718ZM335.356 103.436C336.13 103.024 337.102 103.313 337.511 104.08L339.369 107.524C339.58 107.905 339.604 108.341 339.487 108.721C339.369 109.114 339.103 109.452 338.719 109.654C337.944 110.066 336.972 109.777 336.563 109.01L334.705 105.566C334.495 105.185 334.47 104.749 334.588 104.369C334.705 103.976 334.972 103.638 335.356 103.436Z" fill="#003156"/>
<path d="M337.641 102.104C337.728 102.227 337.809 102.355 337.889 102.491L341.011 108.261C341.091 108.409 341.159 108.55 341.209 108.703C341.147 108.482 341.06 108.267 340.949 108.059L338.025 102.65C337.908 102.454 337.784 102.27 337.641 102.104Z" fill="#003156"/>
<path d="M155.202 321.801L93.0442 383.418" stroke="#688D9E" stroke-width="1.85805" stroke-miterlimit="10"/>
<path d="M155.202 383.418L93.0442 321.801" stroke="#688D9E" stroke-width="1.85805" stroke-miterlimit="10"/>
<path d="M168.078 352.606H80.1672" stroke="#688D9E" stroke-width="1.85805" stroke-miterlimit="10"/>
<path d="M124.122 309.043V396.175" stroke="#688D9E" stroke-width="1.85805" stroke-miterlimit="10"/>
<path d="M411.973 321.801L349.816 383.418" stroke="#688D9E" stroke-width="1.85805" stroke-miterlimit="10"/>
<path d="M411.973 383.418L349.816 321.801" stroke="#688D9E" stroke-width="1.85805" stroke-miterlimit="10"/>
<path d="M424.851 352.606H336.947" stroke="#688D9E" stroke-width="1.85805" stroke-miterlimit="10"/>
<path d="M380.894 309.043V396.175" stroke="#688D9E" stroke-width="1.85805" stroke-miterlimit="10"/>
<path d="M569.373 410.976H13.8601" stroke="#BED5E6" stroke-width="1.2387" stroke-miterlimit="10" stroke-linecap="round"/>
<path d="M380.895 294.617C348.584 294.617 322.391 320.579 322.391 352.613C322.391 384.64 348.584 410.602 380.895 410.602C413.207 410.602 439.405 384.64 439.405 352.613C439.411 320.579 413.213 294.617 380.895 294.617ZM380.895 396.175C356.623 396.175 336.946 376.671 336.946 352.613C336.946 328.548 356.623 309.044 380.895 309.044C405.174 309.044 424.85 328.548 424.85 352.613C424.856 376.671 405.18 396.175 380.895 396.175Z" fill="#0D314F"/>
<path d="M302.458 283.831L292.245 322.808L222.37 326.454L226.575 282.394L302.458 283.831Z" fill="#254A69"/>
<path d="M182.497 348.659C180.299 316.705 152.385 292.566 120.141 294.746C87.898 296.925 63.5513 324.594 65.75 356.554C67.9549 388.507 95.8629 412.646 128.106 410.467C160.343 408.293 184.69 380.619 182.497 348.659ZM124.124 396.175C99.8452 396.175 80.1685 376.671 80.1685 352.612C80.1685 328.547 99.8452 309.044 124.124 309.044C148.396 309.044 168.079 328.547 168.079 352.612C168.079 376.671 148.402 396.175 124.124 396.175Z" fill="#0D314F"/>
<path d="M380.901 410.601C413.215 410.601 439.411 384.636 439.411 352.606C439.411 320.576 413.215 294.611 380.901 294.611C348.587 294.611 322.391 320.576 322.391 352.606C322.391 384.636 348.587 410.601 380.901 410.601Z" stroke="#71B5BC" stroke-width="0.619349" stroke-miterlimit="10"/>
<path d="M124.123 377.064C137.75 377.064 148.798 366.114 148.798 352.606C148.798 339.099 137.75 328.148 124.123 328.148C110.495 328.148 99.448 339.099 99.448 352.606C99.448 366.114 110.495 377.064 124.123 377.064Z" fill="#688D9E"/>
<path d="M124.124 364.449C130.722 364.449 136.071 359.147 136.071 352.606C136.071 346.066 130.722 340.764 124.124 340.764C117.525 340.764 112.177 346.066 112.177 352.606C112.177 359.147 117.525 364.449 124.124 364.449Z" fill="#0A3451"/>
<path d="M351.153 259.272C351.14 259.193 351.128 259.12 351.122 259.041" stroke="black" stroke-width="0.619349" stroke-miterlimit="10"/>
<path d="M63.1911 277.692V289.577C60.4474 288.803 59.4625 285.629 59.382 283.898C59.2829 281.817 60.3483 278.477 63.1911 277.692Z" fill="#F25F24"/>
<path d="M72.9267 283.634C72.9267 286.906 67.4145 290.099 63.9399 289.724C63.6736 289.694 63.4259 289.644 63.1843 289.577V277.692C63.4259 277.624 63.6736 277.575 63.9399 277.544C67.433 277.17 72.9267 280.362 72.9267 283.634Z" fill="#0D314F"/>
<path d="M380.899 292.37C374.18 292.37 367.466 293.469 361.111 295.636C349.344 299.651 338.97 307.306 331.667 317.288C328.007 322.298 325.127 327.866 323.17 333.741C322.173 336.743 321.417 339.825 320.909 342.95C320.377 346.24 320.593 349.96 319.547 353.116C319.2 354.166 318.494 355.43 317.453 355.958C316.128 356.633 315.335 355.614 314.685 354.399C313.18 351.581 312.963 347.566 312.833 344.405C312.455 335.442 315.31 327.031 319.627 319.259C325.561 308.565 334.355 299.504 344.903 293.211C358.318 285.206 374.415 281.602 389.855 285.249C392.382 285.844 402.589 288.638 399.152 292.542C397.077 294.899 393.862 293.678 391.255 293.236C387.83 292.659 384.362 292.37 380.899 292.37Z" fill="#7CA7E5"/>
<path d="M121.832 266.598C124.613 266.8 127.387 267.224 130.143 267.875C134.392 268.882 137.854 271.073 141.713 272.946C144.345 274.222 156.67 285.076 149.585 286.697C148.253 287.004 146.866 286.642 145.54 286.323C130.608 282.694 114.567 283.683 100.204 289.116C83.624 295.384 65.0188 308.871 61.0488 326.963C60.5099 329.419 59.8286 333.452 56.961 334.311C51.9257 335.822 52.8733 326.908 53.1025 324.194C54.8304 303.929 67.7811 286.23 85.191 275.837C96.2092 269.262 109.042 265.652 121.832 266.598Z" fill="#7CA7E5"/>
<path d="M87.5678 248.709L92.8819 272.197C92.9872 272.658 93.3464 273.014 93.8047 273.124L141.798 284.359C149.026 286.047 155.374 290.307 159.642 296.324L187.438 335.484C189.438 338.302 190.807 341.507 191.457 344.889L192.969 352.766C193.997 358.125 198.722 361.999 204.222 361.999H270.511C277.869 361.999 284.341 357.186 286.398 350.181L293.062 327.504C294.127 323.875 291.21 320.315 287.413 320.597L230.433 324.845C227.231 325.085 224.574 322.421 224.853 319.253L227.535 288.558C227.77 285.887 230.018 283.843 232.725 283.843H302.457C305.183 283.843 307.796 282.775 309.729 280.872L320.951 269.815C321.174 269.594 321.471 269.471 321.787 269.459L333.152 269.091C334.032 269.06 334.602 268.164 334.248 267.366L321.886 239.593C321.378 238.451 319.13 238.838 318.189 239.12C316.275 239.691 316.133 241.263 314.999 242.601C313.983 243.798 312.187 243.945 310.614 243.81C307.852 243.571 305.108 242.748 302.699 241.385C301.045 240.452 299.602 240.814 297.732 240.986C297.589 240.999 297.453 241.035 297.329 241.097L235.846 269.361C235.679 269.441 235.493 269.478 235.307 269.478L138.875 268.366L96.0158 266.506C95.477 266.482 95.0186 266.119 94.8762 265.61L89.9772 248.126C89.8285 247.598 89.3516 247.236 88.8003 247.224C87.9952 247.199 87.3944 247.93 87.5678 248.709Z" fill="#063146"/>
<path d="M127.796 337.854L130.087 338.554C131.016 338.837 131.995 338.321 132.28 337.406L135.525 326.97C135.81 326.049 135.29 325.079 134.367 324.797L132.075 324.097C131.146 323.814 130.168 324.33 129.883 325.245L126.637 335.681C126.352 336.596 126.873 337.572 127.796 337.854Z" fill="#2A6893"/>
<path d="M284.411 340.678L283.445 347.996C282.516 355.055 276.446 360.237 269.429 359.961L232.931 358.518C225.629 358.229 219.856 352.139 219.856 344.73V342.059C219.856 334.889 225.269 328.909 232.318 328.308L269.782 325.103C278.447 324.354 285.563 331.936 284.411 340.678Z" fill="#FCFAFC"/>
<path d="M164.82 290.485L187.184 322.537C187.729 323.323 188.633 323.79 189.593 323.79H205.771C207.053 323.79 208.186 322.961 208.57 321.752L218.672 289.7C219.26 287.827 217.848 285.924 215.872 285.924H167.229C164.863 285.924 163.476 288.558 164.82 290.485Z" stroke="black" stroke-width="0.619349" stroke-miterlimit="10"/>
<path d="M162.27 290.774L185.725 324.385C186.629 325.68 188.109 326.448 189.701 326.448H206.287C208.399 326.448 210.27 325.085 210.901 323.09L221.492 289.479C222.465 286.397 220.142 283.26 216.878 283.26H166.252C162.344 283.266 160.053 287.6 162.27 290.774Z" fill="#7CA7E5"/>
<path d="M177.063 301.13L187.196 315.649C188.366 317.325 190.293 318.326 192.349 318.326H198.598C201.342 318.326 203.764 316.558 204.581 313.967L209.158 299.448C210.415 295.446 207.405 291.388 203.175 291.388H182.223C177.162 291.388 174.19 297.011 177.063 301.13Z" fill="#6572AA"/>
<path d="M280.812 291.186H242.746C240.764 291.186 239.098 292.647 238.857 294.593L238.033 301.192C237.947 301.904 238.058 302.629 238.355 303.279L245.707 319.284C246.382 320.757 247.906 321.66 249.534 321.549C257.289 321.027 281.227 319.707 281.332 319.296C281.437 318.866 284.701 305.367 285.469 301.407C285.599 300.732 285.754 300.063 285.624 299.387L284.664 294.347C284.311 292.512 282.694 291.186 280.812 291.186Z" fill="#0A3150"/>
<path d="M117.653 343.748L66.9716 314.741C65.9311 314.146 65.572 312.826 66.1728 311.794C66.7735 310.763 68.105 310.407 69.1455 311.002L119.827 340.009C120.867 340.605 121.227 341.925 120.626 342.956C120.025 343.987 118.694 344.344 117.653 343.748Z" fill="#063146"/>
<path d="M292.147 218.898L307.526 216.761C308.002 216.694 308.485 216.853 308.826 217.191L311.607 219.948C311.966 220.304 312.474 220.463 312.976 220.371L315.596 219.892C316.19 219.782 316.667 219.34 316.816 218.757L317.28 216.872C317.54 215.816 318.804 215.362 319.69 216.006L325.127 219.96C325.598 220.304 325.833 220.881 325.734 221.446L323.771 232.858C323.697 233.275 323.455 233.65 323.09 233.883L320.383 235.627C320.036 235.848 319.621 235.927 319.219 235.842L311.948 234.282C311.836 234.258 311.731 234.221 311.626 234.172L293.33 225.743C292.327 225.282 292.129 223.95 292.952 223.22L294.476 221.863C294.94 221.452 295.609 221.36 296.167 221.624L308.677 227.56C309.718 228.057 310.92 227.278 310.882 226.13C310.858 225.35 310.244 224.718 309.464 224.662L295.671 223.606C295.473 223.594 295.287 223.539 295.108 223.453L291.67 221.777C290.32 221.114 290.642 219.107 292.147 218.898Z" fill="#063146"/>
<path d="M280.916 203.673C282.89 203.673 284.49 199.856 284.49 195.146C284.49 190.437 282.89 186.619 280.916 186.619C278.943 186.619 277.343 190.437 277.343 195.146C277.343 199.856 278.943 203.673 280.916 203.673Z" fill="#063146"/>
<path d="M317.125 203.679C318.794 203.679 320.147 200.392 320.147 196.337C320.147 192.282 318.794 188.995 317.125 188.995C315.456 188.995 314.102 192.282 314.102 196.337C314.102 200.392 315.456 203.679 317.125 203.679Z" fill="#063146"/>
<path d="M306.576 218.806L291.532 196.276H283.939V194.023H292.752L308.471 217.566L306.576 218.806Z" fill="#063146"/>
<path d="M318.97 194.705L316.096 220.544L314.189 220.722L316.939 195.994" fill="#063146"/>
<path d="M284.838 238.347H275.443C274.737 238.347 274.167 237.782 274.167 237.082V236.229C274.167 235.529 274.737 234.964 275.443 234.964H284.838C285.544 234.964 286.114 235.529 286.114 236.229V237.082C286.114 237.782 285.544 238.347 284.838 238.347Z" fill="#899BAB"/>
<path d="M275.988 311.598L250.837 313.065C249.443 313.145 248.266 312.046 248.266 310.665V300.566C248.266 299.234 249.356 298.16 250.694 298.16H275.846C277.19 298.16 278.274 299.24 278.274 300.566V309.198C278.274 310.469 277.277 311.518 275.988 311.598Z" fill="#7CA7E5"/>
<path d="M319.972 267.372L301.807 323.789L297.143 315.109L310.645 275.469L319.972 267.372Z" fill="#023159"/>
<path d="M380.898 377.064C394.526 377.064 405.573 366.114 405.573 352.606C405.573 339.099 394.526 328.148 380.898 328.148C367.271 328.148 356.223 339.099 356.223 352.606C356.223 366.114 367.271 377.064 380.898 377.064Z" fill="#688D9E"/>
<path d="M323.039 267.372C321.98 274.431 321.522 284.899 325.244 296.765C326.718 301.474 328.595 305.575 330.509 309.043" stroke="#063146" stroke-width="1.85805" stroke-miterlimit="10"/>
<path d="M380.897 364.449C387.496 364.449 392.844 359.147 392.844 352.606C392.844 346.066 387.496 340.764 380.897 340.764C374.299 340.764 368.95 346.066 368.95 352.606C368.95 359.147 374.299 364.449 380.897 364.449Z" fill="#0A3451"/>
<path d="M234.751 372.872L253.901 409.43C254.279 410.148 255.028 410.596 255.84 410.596C257.456 410.596 258.515 408.914 257.803 407.471L240.647 372.866H234.751V372.872Z" fill="#063146"/>
<path d="M222.971 270.331C221.41 268.544 219.428 268.127 217.124 267.433C214.486 266.635 211.81 265.96 209.122 265.358C203.759 264.155 198.333 263.246 192.939 262.209C179.449 259.612 165.947 257.113 152.254 256.622C145.094 256.364 137.928 256.107 130.768 255.849C126.922 255.714 123.076 255.572 119.23 255.437C114.461 255.266 109.488 255.579 104.836 256.487C101.263 257.187 98.2835 259.016 96.9024 262.448C95.7132 265.395 97.6023 269.686 100.557 271.141C104.248 272.958 108.435 273.627 112.467 273.775L215.941 277.489C218.666 277.587 223.417 277.673 224.241 274.309C224.532 273.118 224.104 271.847 223.38 270.853C223.243 270.662 223.107 270.49 222.971 270.331Z" fill="#4A4C5D"/>
<path d="M302.573 240.508C309.33 242.608 314.625 248.028 316.13 254.892C316.192 255.162 316.242 255.438 316.291 255.721C317.319 261.614 315.616 267.685 311.826 272.529C309.819 275.089 306.722 276.581 303.452 276.581H231.93C230.623 276.581 229.384 276.016 228.529 275.034L225.03 270.988C223.519 269.239 223.599 266.63 225.234 264.99C228.269 261.939 232.177 258.366 236.983 254.72C242.663 250.416 252.238 243.16 264.377 239.556C279.366 235.1 293.394 237.659 302.573 240.508Z" fill="#7CA7E5"/>
<path d="M129.122 330.616L133.104 331.831C134.387 332.224 135.743 331.512 136.139 330.241L150.744 283.241C151.474 280.884 150.143 278.379 147.758 277.655C145.38 276.93 142.853 278.25 142.122 280.614L127.518 327.614C127.122 328.879 127.84 330.223 129.122 330.616Z" fill="#F4FDFA" stroke="#2A6893" stroke-width="0.619349" stroke-miterlimit="10"/>
<path d="M129.759 321.58L137.699 324.005C138.913 324.373 140.195 323.698 140.573 322.5L148.141 298.147C148.513 296.944 147.831 295.673 146.624 295.298L138.684 292.874C137.47 292.505 136.188 293.18 135.81 294.378L128.241 318.731C127.87 319.934 128.545 321.211 129.759 321.58Z" fill="#254A69"/>
<path d="M293.638 225.989L278.563 227.591C276.482 227.812 274.612 226.32 274.389 224.257L274.339 223.779C274.116 221.716 275.621 219.862 277.702 219.641L292.777 218.039C294.858 217.818 296.729 219.309 296.951 221.372L297.001 221.851C297.224 223.914 295.719 225.768 293.638 225.989Z" fill="#254A69"/>
<path d="M353.729 291.861L380.838 348.512C381.903 350.741 380.943 353.411 378.695 354.467C376.447 355.523 373.753 354.571 372.688 352.343L345.579 295.692" fill="#F4FDFA"/>
<path d="M353.729 291.861L380.838 348.512C381.903 350.741 380.943 353.411 378.695 354.467C376.447 355.523 373.753 354.571 372.688 352.343L345.579 295.692" stroke="#2A6893" stroke-width="0.619349" stroke-miterlimit="10"/>
<path d="M345.577 295.691L318.684 239.495C317.786 237.622 318.591 235.382 320.487 234.491L321.787 233.877C323.676 232.987 325.937 233.785 326.835 235.664L353.727 291.861" fill="#7CA7E5"/>
<path d="M352.867 296.619L349.832 298.043C347.85 298.976 345.484 298.135 344.543 296.17L332.205 270.38C331.264 268.416 332.113 266.071 334.088 265.138L337.123 263.713C339.105 262.78 341.471 263.621 342.412 265.586L354.75 291.376C355.691 293.34 354.849 295.685 352.867 296.619Z" fill="#0D314F"/>
<path d="M276.52 341.334L275.79 346.025C275.09 350.543 270.507 353.864 265.211 353.686L237.656 352.765C232.144 352.581 227.784 348.683 227.784 343.931V342.219C227.784 337.627 231.872 333.796 237.192 333.409L265.477 331.352C272.018 330.88 277.394 335.736 276.52 341.334Z" fill="#0A3150"/>
<path d="M184.501 367.211L197.538 371.042C201.669 372.257 205.961 372.871 210.272 372.871H277.459C283.801 372.871 289.394 368.739 291.209 362.717L302.196 326.184C303.936 320.407 302.71 314.071 298.697 309.547C298.529 309.357 298.356 309.172 298.176 308.988C293.091 303.684 286.743 303.132 285.331 303.046L283.498 309.719C284.557 309.78 288.564 310.124 291.94 313.359C292.751 314.139 293.401 314.962 293.915 315.784C295.693 318.614 296.083 322.089 295.111 325.281C291.587 336.847 288.056 348.419 284.532 359.985C283.597 363.055 280.742 365.16 277.503 365.16H210.978C207.138 365.16 203.317 364.639 199.613 363.619C194.962 362.33 190.311 361.047 185.653 359.758" fill="#E1B77D"/>
<path d="M176.271 371.361L122.041 354.804C120.53 354.344 119.359 353.134 118.895 351.569L117.495 346.854C116.888 344.81 117.594 342.545 119.254 341.194L123.082 338.081C124.358 337.044 126.011 336.7 127.522 337.161L181.753 353.718C183.301 354.19 184.49 355.443 184.93 357.063L186.206 361.735C186.745 363.712 186.069 365.873 184.502 367.205L180.799 370.36C179.517 371.459 177.82 371.834 176.271 371.361Z" fill="#899BAB"/>
<path d="M289.496 258.753C291.363 258.753 292.877 257.252 292.877 255.401C292.877 253.549 291.363 252.049 289.496 252.049C287.628 252.049 286.114 253.549 286.114 255.401C286.114 257.252 287.628 258.753 289.496 258.753Z" fill="#FFFDF7"/>
<path d="M196.065 193.788C196.288 193.788 196.288 193.446 196.065 193.446C195.842 193.446 195.842 193.788 196.065 193.788Z" fill="#E98B50"/>
<path d="M240.599 270.313C242.859 270.338 245.114 269.883 247.418 269.871C250.229 269.853 252.626 270.767 255.581 270.319C256.999 270.104 258.417 269.791 259.699 269.171C262.294 267.913 264.202 265.341 264.636 262.51C265.069 259.68 264.022 256.666 261.923 254.695C261.198 254.02 260.343 253.455 259.39 253.179C258.3 252.866 257.135 252.952 256.008 253.112C248.644 254.18 241.571 258.311 236.616 263.665C235.594 264.77 234.585 266.194 234.95 267.649C235.223 268.723 236.214 269.503 237.279 269.834C238.388 270.178 239.496 270.301 240.599 270.313Z" fill="#254A69"/>
<path d="M351.908 261.092C357.358 258.661 359.322 249.593 359.483 244.627C359.681 238.647 357.563 229.12 351.939 226.609C351.214 231.545 350.682 237.297 350.663 243.718C350.657 250.244 351.177 256.088 351.908 261.092Z" fill="#FFFDF7" stroke="#E1B77D" stroke-width="0.619349" stroke-miterlimit="10"/>
<path d="M350.116 261.621C350.748 261.522 351.348 261.344 351.906 261.093C351.181 256.089 350.655 250.245 350.667 243.725C350.686 237.304 351.212 231.545 351.943 226.616C351.373 226.364 350.76 226.18 350.116 226.082C342.944 224.989 331.659 234.308 331.653 243.854C331.653 245.567 332.019 247.267 332.656 248.9L333.796 251.289C337.425 257.649 344.889 262.425 350.116 261.621Z" fill="#063146"/>
<path d="M224.526 382.547H210.547V400.325H224.526V382.547Z" fill="#E29B7F"/>
<path d="M229.764 236.561L228.358 392.161L205.77 394.727L203.441 314.662L195.018 258.643C193.953 251.54 193.978 244.229 195.105 236.954L196.133 230.33L229.764 236.561Z" fill="#254A69" stroke="#3B8486" stroke-width="0.619349" stroke-miterlimit="10"/>
<path d="M183.466 382.547H169.487V400.325H183.466V382.547Z" fill="#E29B7F"/>
<path d="M205.823 238.464L186.53 392.891H163.793L170.687 313.084L168.761 256.476C168.519 249.299 169.386 242.037 171.343 234.934L173.121 228.47L205.823 238.464Z" fill="#063146" stroke="#3B8486" stroke-width="0.619349" stroke-miterlimit="10"/>
<path d="M200.633 412.204C201.203 412.106 201.816 411.965 202.194 411.523C202.696 410.94 202.597 410.062 202.38 409.319C202.318 409.11 202.25 408.901 202.114 408.73C201.593 408.073 200.014 407.477 199.227 407.17C197.945 406.667 196.688 406.102 195.468 405.457C189.764 402.419 185.942 398.275 183.632 395.23C183.255 394.726 182.598 394.585 182.072 394.904C181.074 395.512 180.282 396.323 179.278 396.912C176.658 398.459 173.946 399.797 171.066 398.127C170.069 397.55 168.328 396.795 168.173 398.705C168.031 400.417 167.882 402.13 167.74 403.837C167.628 405.181 167.523 406.526 167.399 407.864C167.282 409.178 166.476 410.406 167.845 411.394C168.489 411.86 169.3 412.014 170.093 412.112C172.719 412.425 175.383 412.167 178.027 412.137C185.521 412.045 193.133 413.487 200.633 412.204Z" fill="#063146"/>
<path d="M242.774 412.204C243.344 412.106 243.957 411.965 244.335 411.523C244.836 410.94 244.737 410.062 244.521 409.319C244.459 409.11 244.39 408.901 244.254 408.73C243.734 408.073 242.155 407.477 241.368 407.17C240.086 406.667 238.829 406.102 237.609 405.457C231.904 402.419 228.083 398.275 225.773 395.23C225.395 394.726 224.739 394.585 224.212 394.904C223.215 395.512 222.422 396.323 221.419 396.912C218.799 398.459 216.086 399.797 213.206 398.127C212.209 397.55 210.469 396.795 210.314 398.705C210.172 400.417 210.023 402.13 209.88 403.837C209.769 405.181 209.664 406.526 209.54 407.864C209.422 409.178 208.617 410.406 209.986 411.394C210.63 411.86 211.441 412.014 212.234 412.112C214.86 412.425 217.523 412.167 220.168 412.137C227.662 412.045 235.274 413.487 242.774 412.204Z" fill="#063146"/>
<path d="M235.737 165.753C238.945 168.927 242.451 171.794 246.204 174.311C248.378 175.772 250.44 177.343 253.085 177.607C255.172 177.816 257.99 178 259.836 176.779C261.316 175.796 261.793 173.298 262.319 171.683C262.536 171.026 262.753 170.326 262.592 169.651C262.22 168.104 261.52 166.465 260.356 165.323C259.353 164.341 258.133 163.61 256.943 162.868C252.546 160.123 248.384 157.011 244.513 153.573" fill="#E29B7F"/>
<path d="M308.539 143.162C307.592 142.965 306.619 142.836 305.659 142.72C302.6 142.333 299.54 141.952 296.481 141.566C296.165 141.529 295.799 141.449 295.669 141.16C295.564 140.921 295.676 140.645 295.787 140.411C296.487 138.981 297.373 137.63 298.407 136.415C298.71 136.059 299.051 135.635 298.946 135.175C298.803 134.555 297.98 134.401 297.342 134.481C294.895 134.77 292.87 136.446 291.086 138.128C287.562 141.437 284.608 145.378 280.706 148.269C277.008 151.014 272.828 153.033 268.746 155.145C263.283 157.975 257.685 160.953 253.405 165.446C252.191 166.717 250.934 168.326 250.11 170.02C248.71 172.893 248.58 176.012 252.104 178.13C256.056 180.505 262.813 178.602 266.3 175.913C270.363 172.783 273.955 169.111 277.522 165.453C280.613 162.279 283.388 158.62 286.856 155.827C289.333 153.524 293.093 153.291 296.289 153.328C299.906 153.371 303.504 153.328 307.121 153.438C308.502 153.481 309.908 153.524 311.252 153.187C312.596 152.849 313.891 152.082 314.535 150.872C315.65 148.779 314.423 146.059 312.46 144.703C311.302 143.898 309.945 143.456 308.539 143.162Z" fill="#E29B7F"/>
<path d="M236.841 184.52C231.483 179.824 227.724 171.788 224.59 165.397C223.302 162.77 222.348 159 220.446 156.79C217.783 153.696 214.426 150.467 212.754 146.673C211.119 142.971 210.153 138.164 209.688 134.137C209.639 133.701 209.595 133.241 209.775 132.842C210.196 131.909 211.485 131.909 212.494 132.093C212.593 132.111 212.692 132.13 212.791 132.148C219.951 133.48 225.284 137.274 230.944 141.879C232.635 143.254 234.32 144.623 236.011 145.998C242.235 151.056 248.348 156.238 254.548 161.333C254.096 160.971 238.29 182.58 236.841 184.52Z" fill="#D84545"/>
<path d="M226.309 136.065C227.177 136.814 228.019 137.587 228.793 138.441C233.735 143.874 234.454 151.793 234.689 158.859C234.962 167.073 233.562 175.201 232.776 183.342C232.336 187.891 230.534 238.611 230.571 238.611C208.912 238.924 187.043 235.959 166.165 229.875C166.381 226.579 166.623 223.282 166.883 219.985C168.06 204.914 169.961 189.916 172.03 174.949C173.027 167.73 173.318 159.786 175.257 152.775C176.935 146.716 180.961 141.185 185.513 136.986C188.393 134.328 191.62 132.075 194.995 130.116C198.854 127.875 201.22 126.525 205.648 127.206C209.197 127.753 212.721 128.502 216.189 129.453C219.85 130.454 221.925 132.394 224.829 134.813C225.319 135.23 225.82 135.641 226.309 136.065Z" fill="#D84545"/>
<path d="M217.281 116.654C216.612 119.115 215.937 121.626 216.055 124.18C216.142 126.003 216.68 127.9 217.826 129.355C218.761 130.546 220.725 131.363 219.82 133.198C219.461 133.935 218.755 134.451 218.031 134.85C214.426 136.814 209.979 136.391 206.009 135.316C202.751 134.432 199.37 132.953 197.704 130.043C197.604 129.871 197.512 129.681 197.561 129.49C197.604 129.319 197.753 129.196 197.896 129.085C199.308 127.986 200.776 126.525 201.426 124.806C203.241 120.012 205.08 114.91 204.139 109.864" fill="#E29B7F"/>
<path d="M207.868 122.43C210.184 124.266 213.095 125.279 216.037 125.426C216.291 124.186 216.551 122.94 216.805 121.7C216.842 121.528 216.873 121.338 216.799 121.172C216.737 121.043 216.619 120.957 216.508 120.877C213.609 118.814 209.924 116.899 206.369 116.408C204.765 116.187 203.712 116.825 204.536 118.428C205.335 119.981 206.511 121.356 207.868 122.43Z" fill="#C66D58"/>
<path d="M231.973 115.462C230.79 118.593 229.167 121.712 226.473 123.67C223.686 125.696 219.988 126.23 216.638 125.475C213.287 124.72 210.277 122.761 207.88 120.281C202.863 115.081 200.473 107.365 201.891 100.25C203.309 93.1344 208.574 86.8726 215.374 84.5213C221.283 82.477 232.518 83.2014 235.385 90.0587C236.605 92.9748 235.893 96.6582 235.528 99.6725C234.871 105.032 233.887 110.397 231.973 115.462Z" fill="#E29B7F"/>
<path d="M237.038 92.3545C235.644 92.3791 233.941 91.36 232.64 90.9916C230.962 90.5189 229.284 90.2795 227.562 90.0339C224.502 89.5981 221.412 89.8928 218.321 90.2304C219.027 91.7222 218.581 93.5332 217.72 94.939C216.866 96.3449 215.639 97.4806 214.63 98.7759C213.62 100.071 212.79 101.655 212.951 103.3C212.01 102.551 211.564 101.354 210.945 100.317C210.325 99.2793 209.297 98.2787 208.108 98.4321C207.458 98.5119 206.9 98.9294 206.454 99.4144C205.228 100.747 204.714 102.705 205.117 104.473C205.519 106.241 206.826 107.776 208.504 108.439C209.149 108.697 207.297 114.578 206.708 115.112C205.278 116.407 202.54 116.855 200.905 115.812C199.059 114.639 198.812 111.392 200.726 110.336C197.709 109.157 195.591 106.192 194.885 103.012C194.179 99.8319 194.73 96.4615 195.87 93.4104C197.201 89.8559 199.382 86.5531 202.435 84.3247C206.684 81.2122 211.347 80.942 215.943 83.2073C216.841 81.648 218.439 80.5798 220.148 80.0457C221.858 79.5055 223.679 79.4564 225.462 79.5546C228.274 79.7142 231.111 80.2729 233.594 81.6173C236.078 82.9618 238.184 85.1657 239.02 87.8791C239.292 88.7693 239.429 89.7393 239.119 90.6172C238.679 91.9064 237.924 92.3422 237.038 92.3545Z" fill="#003156"/>
<path d="M221.182 103.731L222.291 100.802C222.508 100.232 223.096 99.8877 223.697 99.9921C224.496 100.127 224.973 100.968 224.682 101.729L223.79 104.087" stroke="#003156" stroke-width="0.619349" stroke-miterlimit="10" stroke-linecap="round"/>
<path d="M228.155 105.179L229.263 102.251C229.48 101.68 230.069 101.336 230.669 101.44C231.468 101.575 231.945 102.416 231.654 103.178L230.762 105.535" stroke="#003156" stroke-width="0.619349" stroke-miterlimit="10" stroke-linecap="round"/>
<path d="M217.344 111.306C217.753 111.938 219.357 114.271 222.51 115.217C225.353 116.07 227.712 115.278 228.468 114.99" stroke="#003156" stroke-width="0.619349" stroke-miterlimit="10" stroke-linecap="round"/>
<path d="M182.058 231.907C180.77 227.07 179.488 222.226 178.2 217.388C176.558 211.219 174.861 205.215 175.004 198.806C175.152 192.09 175.654 185.38 176.521 178.719C177.24 173.206 175.035 170.756 169.392 170.37C166.797 170.192 162.146 170.4 160.356 172.715C158.424 175.207 158.802 181.739 158.672 184.79C158.306 193.397 159.34 202.022 161.192 210.421C162.524 216.431 164.27 222.343 166.221 228.181C167.219 231.158 168.271 234.123 169.349 237.076C169.888 238.55 170.507 240.011 170.99 241.496C171.306 242.473 171.331 243.909 172.155 244.603C172.65 245.02 173.294 245.235 173.932 245.358C176.614 245.867 179.426 244.897 181.575 243.228C185.18 240.41 182.981 235.37 182.058 231.907Z" fill="#E29B7F"/>
<path d="M194.723 163.942C197.95 159.271 200.941 154.9 201.387 149.203C201.517 147.557 201.542 145.894 201.363 144.255C201.164 142.474 200.477 141.695 201.059 140.019C201.332 139.227 200.966 138.373 200.607 137.618C199.554 135.414 198.483 133.174 196.848 131.344C196.612 131.08 196.352 130.816 196.011 130.712C195.714 130.62 195.392 130.663 195.082 130.706C190.066 131.43 183.94 132.646 179.506 135.138C179.37 135.212 179.239 135.292 179.109 135.371C168.649 141.959 161.823 151.873 158.59 163.642C157.717 166.834 156.999 170.063 156.169 173.261C155.494 175.877 154.75 178.535 153.753 181.046C153.704 181.175 159.383 182.433 159.866 182.544C161.266 182.869 162.666 183.176 164.053 183.538C169.138 184.889 174.359 185.527 179.178 187.645C180.051 188.05 186.12 177.81 186.684 176.466C188.585 171.954 191.942 167.976 194.723 163.942Z" fill="#D84545"/>
<path d="M213.431 132.86L215.803 132.387L218.72 135.948L216.336 139.619L210.668 137.458L213.431 132.86Z" fill="#B71D37"/>
<path opacity="0.7" d="M231.301 147.717C234.652 150.209 236.188 155.452 236.132 160.345C236.083 164.716 235.147 170.302 233.5 174.145C233.11 169.768 233.568 165.176 233.203 160.731C233.023 158.497 232.769 156.268 232.441 154.058C232.305 153.113 231.939 148.189 231.301 147.717Z" fill="#B71D37"/>
<path d="M213.429 132.86L200.082 126.285L196.911 130.233L209.75 141.627L213.429 132.86Z" fill="white"/>
<path d="M217.244 128.49L215.801 132.388L220.737 140.633V132.603L217.244 128.49Z" fill="white"/>
<path d="M451.315 400.33L465.293 400.33L465.293 382.551L451.315 382.551L451.315 400.33Z" fill="#E29B7F"/>
<path d="M446.084 236.561L447.49 392.161L470.078 394.727L472.407 314.662L480.83 258.643C481.895 251.54 481.87 244.229 480.743 236.954L479.715 230.33L446.084 236.561Z" fill="#254A69"/>
<path d="M492.383 400.33L506.362 400.33L506.362 382.551L492.383 382.551L492.383 400.33Z" fill="#E29B7F"/>
<path d="M470.024 238.464L489.317 392.891H512.047L505.154 313.084L507.08 256.476C507.321 249.299 506.454 242.037 504.497 234.934L502.719 228.469L470.024 238.464Z" fill="#003156"/>
<path d="M475.212 412.205C474.642 412.106 474.029 411.965 473.651 411.523C473.149 410.94 473.248 410.062 473.465 409.319C473.527 409.11 473.595 408.902 473.731 408.73C474.252 408.073 475.831 407.477 476.618 407.17C477.9 406.667 479.157 406.102 480.377 405.458C486.081 402.419 489.903 398.275 492.213 395.23C492.591 394.727 493.247 394.585 493.774 394.905C494.771 395.512 495.564 396.323 496.567 396.912C499.187 398.459 501.899 399.798 504.779 398.128C505.777 397.551 507.517 396.796 507.672 398.705C507.814 400.418 507.963 402.13 508.105 403.837C508.217 405.181 508.322 406.526 508.446 407.864C508.564 409.178 509.369 410.406 508 411.394C507.356 411.861 506.545 412.014 505.752 412.112C503.126 412.425 500.463 412.168 497.818 412.137C490.324 412.045 482.712 413.488 475.212 412.205Z" fill="#063146"/>
<path d="M433.073 412.205C432.503 412.106 431.89 411.965 431.512 411.523C431.011 410.94 431.11 410.062 431.326 409.319C431.388 409.11 431.457 408.902 431.593 408.73C432.113 408.073 433.692 407.477 434.479 407.17C435.761 406.667 437.018 406.102 438.238 405.458C443.943 402.419 447.764 398.275 450.074 395.23C450.452 394.727 451.108 394.585 451.635 394.905C452.632 395.512 453.425 396.323 454.428 396.912C457.048 398.459 459.761 399.798 462.641 398.128C463.638 397.551 465.378 396.796 465.533 398.705C465.676 400.418 465.824 402.13 465.967 403.837C466.078 405.181 466.183 406.526 466.307 407.864C466.425 409.178 467.23 410.406 465.861 411.394C465.217 411.861 464.406 412.014 463.613 412.112C460.987 412.425 458.324 412.168 455.679 412.137C448.185 412.045 440.573 413.488 433.073 412.205Z" fill="#063146"/>
<path d="M360.237 184.797C357.27 183.827 354.13 182.384 353.337 179.462C353.244 179.118 353.195 178.744 353.331 178.419C355.065 174.299 360.051 174.035 363.686 174.895C364.423 175.067 375.578 177.35 374.965 175.374C374.612 174.232 364.863 165.49 371.1 165.883C375.795 166.183 378.532 171.101 382.447 173.084C387.259 175.527 394.803 172.353 399.77 171.334C405.61 170.137 411.525 168.897 416.851 166.239C420.047 164.649 422.952 162.574 425.745 160.37C427.417 159.05 430.18 155.047 432.23 157.11C434.874 159.762 439.29 163.402 440.74 166.816C441.7 169.081 440.789 169.222 438.454 171.039C436.268 172.74 433.976 174.299 431.598 175.717C422.246 181.285 411.531 184.613 400.631 185.214C394.561 185.552 387.86 184.349 381.939 185.613C374.612 187.179 368.096 187.216 360.98 185.03C360.738 184.957 360.491 184.877 360.237 184.797Z" fill="#E29B7F"/>
<path d="M442.311 177.098C447.161 173.138 450.456 166.238 453.212 160.762C454.345 158.509 455.144 155.255 456.854 153.376C459.244 150.749 462.279 148.017 463.747 144.763C465.178 141.583 465.97 137.433 466.305 133.952C466.342 133.572 466.367 133.173 466.193 132.829C465.779 132.012 464.589 131.982 463.667 132.117C463.574 132.129 463.487 132.141 463.394 132.16C456.804 133.16 451.961 136.341 446.826 140.214C445.297 141.368 443.767 142.523 442.237 143.683C436.595 147.943 431.058 152.308 425.434 156.593C425.849 156.286 440.93 175.385 442.311 177.098Z" fill="#CBE0EF"/>
<path d="M449.536 136.065C448.669 136.814 447.827 137.587 447.052 138.44C442.11 143.873 441.392 151.793 441.156 158.859C440.884 167.073 442.283 175.201 443.07 183.341C443.51 187.89 445.312 238.611 445.275 238.611C466.933 238.924 488.803 235.959 509.681 229.875C509.464 226.579 509.223 223.282 508.963 219.985C507.786 204.914 505.884 189.916 503.816 174.949C502.819 167.73 502.528 159.786 500.589 152.775C498.911 146.716 494.885 141.185 490.333 136.985C487.453 134.327 484.226 132.074 480.85 130.116C476.992 127.875 474.626 126.525 470.197 127.206C466.649 127.752 463.124 128.501 459.656 129.453C455.996 130.454 453.921 132.393 451.016 134.812C450.527 135.23 450.025 135.641 449.536 136.065Z" fill="#CBE0EF"/>
<path d="M458.565 116.653C459.234 119.115 459.909 121.626 459.792 124.18C459.705 126.003 459.166 127.9 458.02 129.355C457.085 130.546 455.122 131.363 456.026 133.198C456.391 133.935 457.091 134.451 457.816 134.85C461.42 136.814 465.867 136.39 469.838 135.316C473.095 134.432 476.477 132.953 478.143 130.043C478.242 129.871 478.335 129.681 478.285 129.49C478.242 129.318 478.093 129.196 477.951 129.085C476.539 127.986 475.071 126.525 474.421 124.806C472.606 120.012 470.767 114.91 471.708 109.864" fill="#E29B7F"/>
<path d="M467.979 122.43C465.663 124.266 462.752 125.279 459.81 125.426C459.556 124.186 459.296 122.94 459.042 121.699C459.004 121.528 458.974 121.337 459.048 121.172C459.11 121.043 459.227 120.957 459.339 120.877C462.237 118.814 465.923 116.899 469.478 116.408C471.082 116.187 472.135 116.825 471.311 118.427C470.512 119.981 469.335 121.356 467.979 122.43Z" fill="#C66D58"/>
<path d="M443.87 115.462C445.053 118.593 446.676 121.711 449.37 123.67C452.157 125.696 455.855 126.23 459.205 125.475C462.556 124.719 465.566 122.761 467.963 120.281C472.98 115.081 475.37 107.364 473.952 100.249C472.534 93.1341 467.269 86.8723 460.469 84.5211C454.56 82.4768 443.325 83.2012 440.458 90.0585C439.237 92.9745 439.95 96.6579 440.315 99.6722C440.972 105.032 441.963 110.397 443.87 115.462Z" fill="#E29B7F"/>
<path d="M440.427 89.6905C442.998 89.9975 446.169 89.5555 447.965 89.138C451.346 88.3522 454.685 87.3946 457.961 86.265C456.214 88.5548 456.679 92.5759 458.11 94.9333C458.964 96.3391 460.191 97.4748 461.2 98.7702C462.21 100.066 463.04 101.649 462.879 103.295C463.82 102.546 464.266 101.349 464.885 100.311C465.505 99.2736 466.533 98.2729 467.722 98.4264C468.372 98.5062 468.93 98.9236 469.376 99.4086C470.602 100.741 471.116 102.699 470.713 104.467C470.528 105.284 470.15 106.057 469.623 106.714C468.118 108.605 468.038 108.617 468.347 111.318C468.614 113.639 469.035 115.966 470.057 118.096C470.286 118.575 470.565 119.06 471.035 119.311C471.475 119.545 472.002 119.532 472.491 119.453C475.718 118.918 477.947 115.757 478.517 112.565C479.081 109.372 478.356 106.112 477.774 102.926C476.449 95.6822 478.876 87.9593 472.509 82.336C471.45 81.4028 470.026 80.3469 468.577 80.2057C467.214 80.0768 466 80.881 464.737 79.7883C464.235 79.3586 463.956 78.7324 463.653 78.1492C462.42 75.8225 460.364 73.815 457.794 73.1704C455.223 72.5258 452.176 73.5203 450.919 75.8286C449.377 73.6431 446.695 72.2987 444.001 72.3662C441.307 72.4337 438.699 73.9132 437.275 76.1785C435.999 78.2044 435.689 80.6723 435.615 83.0543C435.553 85.0924 435.776 87.413 437.405 88.653C438.136 89.2301 439.213 89.5432 440.427 89.6905Z" fill="#003156"/>
<path d="M454.664 103.731L453.556 100.802C453.339 100.231 452.751 99.8875 452.15 99.9919C451.351 100.127 450.874 100.968 451.165 101.729L452.057 104.087" stroke="#003156" stroke-width="0.619349" stroke-miterlimit="10" stroke-linecap="round"/>
<path d="M447.688 105.179L446.579 102.251C446.362 101.68 445.774 101.336 445.173 101.441C444.374 101.576 443.897 102.417 444.188 103.178L445.08 105.535" stroke="#003156" stroke-width="0.619349" stroke-miterlimit="10" stroke-linecap="round"/>
<path d="M458.495 111.306C458.086 111.939 456.482 114.272 453.33 115.217C450.487 116.07 448.127 115.278 447.372 114.99" stroke="#003156" stroke-width="0.619349" stroke-miterlimit="10" stroke-linecap="round"/>
<path d="M454.586 215.805C453.991 215.909 453.39 216.014 452.802 216.118C446.156 217.254 438.421 218.494 433.138 223.012C431.608 224.32 430.406 225.971 428.685 227.07C426.114 228.715 422.813 229.679 419.977 228.531C416.812 227.248 415.183 223.81 414.136 220.587C413.374 218.248 412.761 215.756 413.269 213.349C413.411 212.668 413.665 211.974 414.217 211.544C414.625 211.225 415.152 211.096 415.666 210.986C417.821 210.531 420.038 210.335 422.237 210.403C421.587 208.1 420.664 206.283 419.747 204.116C418.893 202.096 419.277 198.929 421.482 198.788C423.878 198.628 424.436 201.968 425.557 204.073C426.777 206.369 429.477 207.597 432.091 207.775C434.705 207.953 437.287 207.247 439.814 206.553C446.491 204.718 453.192 202.864 459.615 200.249C462.693 198.99 465.709 197.572 468.583 195.89C471.828 193.999 471.94 192.833 473.916 190.058C474.727 188.922 475.483 188.155 476.009 186.755C477.7 182.249 478.065 176.515 479.273 172.973C480.883 168.24 483.937 164.004 487.925 160.947C489.845 159.473 492.162 158.233 494.577 158.454C501.353 159.068 497.587 166.797 496.931 170.738C495.413 179.824 494.813 189.119 492.725 198.082C491.121 204.957 483.497 208.291 477.384 210.323C470.113 212.717 462.191 214.454 454.586 215.805Z" fill="#E29B7F"/>
<path d="M495.447 141.087C495.881 141.565 496.277 142.075 496.63 142.609C500.34 148.183 502.842 155.513 501.43 162.205C500.538 166.435 499.894 170.695 499.504 174.968C499.077 179.627 499.349 184.453 499.523 189.075C488.244 190.113 476.985 191.715 465.812 193.876C466.034 193.833 466.276 185.067 466.493 184.115C467.199 181.009 466.957 178.05 466.852 174.9C466.666 169.099 466.474 163.304 466.288 157.502C466.103 151.842 465.948 146.563 468.667 141.522C470.71 137.735 474.489 132.308 479.567 133.425C485.042 134.634 491.626 136.832 495.447 141.087Z" fill="#CBE0EF"/>
<path d="M462.415 132.86L460.043 132.387L457.125 135.948L459.51 139.619L465.177 137.458L462.415 132.86Z" fill="#B71D37"/>
<path opacity="0.58" d="M444.54 147.716C441.189 150.209 439.653 155.451 439.709 160.344C439.759 164.715 440.694 170.302 442.341 174.145C442.731 169.768 442.273 165.176 442.638 160.731C442.818 158.496 443.072 156.268 443.4 154.058C443.537 153.113 443.896 148.189 444.54 147.716Z" fill="#6B92C1"/>
<path d="M462.417 132.86L475.763 126.285L478.928 130.233L466.095 141.627L462.417 132.86Z" fill="white"/>
<path d="M458.595 128.489L460.044 132.388L455.108 140.632V132.602L458.595 128.489Z" fill="white"/>
<path opacity="0.58" d="M492.79 189.757L501.894 188.805L500.377 152.72L498.581 185.951L492.79 189.757Z" fill="#6B92C1"/>
<path opacity="0.58" d="M471.825 150.124L468.622 193.342L465.817 193.876L471.825 150.124Z" fill="#6B92C1"/>
<path d="M356.321 156.237C366.175 156.237 374.164 148.318 374.164 138.55C374.164 128.782 366.175 120.864 356.321 120.864C346.466 120.864 338.477 128.782 338.477 138.55C338.477 148.318 346.466 156.237 356.321 156.237Z" fill="#E98B50" stroke="#E98B50" stroke-width="0.619349" stroke-miterlimit="10"/>
<path d="M357.262 154.641C367.117 154.641 375.106 146.723 375.106 136.955C375.106 127.187 367.117 119.268 357.262 119.268C347.408 119.268 339.419 127.187 339.419 136.955C339.419 146.723 347.408 154.641 357.262 154.641Z" fill="#F9C358" stroke="#F4E06C" stroke-width="1.2387" stroke-miterlimit="10"/>
<path d="M355.329 129.265H350.575V127.486H363.035V129.265H359.842C360.285 129.595 360.632 130.011 360.882 130.511C361.132 131.003 361.273 131.523 361.305 132.071H363.035V133.85H361.281C361.128 134.89 360.713 135.781 360.035 136.523C359.358 137.265 358.474 137.777 357.386 138.06L360.979 143.443H363.035V145.718H359.467L354.664 138.435H350.575V136.644H355.16C356.184 136.644 356.99 136.402 357.579 135.918C358.176 135.434 358.559 134.745 358.729 133.85H350.575V132.071H358.753C358.656 131.305 358.333 130.648 357.785 130.099C357.236 129.543 356.418 129.265 355.329 129.265Z" fill="#D87741"/>
<path d="M346.305 73.6671L338.904 74.9072L337.412 85.2882C337.189 86.8169 334.959 86.8107 334.742 85.2821L333.318 74.9992L325.91 73.6609C324.696 73.4399 324.703 71.2299 325.91 71.015L333.429 69.7074L334.742 59.4736C334.94 57.9204 337.207 57.9143 337.412 59.4675L338.793 69.8056L346.293 71.0089C347.526 71.2176 347.532 73.4645 346.305 73.6671Z" fill="#F7BB34"/>
<path d="M386.02 104.534L379.969 105.547L378.749 114.031C378.569 115.283 376.742 115.277 376.569 114.025L375.404 105.62L369.353 104.528C368.356 104.35 368.362 102.539 369.353 102.367L375.497 101.299L376.569 92.9372C376.73 91.6726 378.588 91.6664 378.749 92.9311L379.882 101.378L386.014 102.367C387.017 102.533 387.023 104.368 386.02 104.534Z" fill="#F7BB34"/>
<path d="M301.353 102.76L293.704 104.043L292.162 114.774C291.933 116.358 289.629 116.352 289.406 114.768L287.932 104.135L280.277 102.754C279.02 102.527 279.026 100.243 280.277 100.022L288.05 98.6715L289.406 88.094C289.61 86.4917 291.958 86.4855 292.162 88.0878L293.593 98.7759L301.347 100.022C302.611 100.225 302.617 102.545 301.353 102.76Z" fill="#F7BB34"/>
<path d="M185.69 159.16L177.651 186.264L179.769 187.301L185.69 159.16Z" fill="#B71D37"/>
<path d="M459.511 139.619L450.295 179.657L452.94 196.202L461.152 182.831L459.511 139.619Z" fill="#D84545"/>
<path d="M296.201 64.1647L292.002 58.3142" stroke="#F7BB34" stroke-width="1.85805" stroke-miterlimit="10" stroke-linecap="round"/>
<path d="M312.194 86.4367L300.6 70.2849" stroke="#F7BB34" stroke-width="1.85805" stroke-miterlimit="10" stroke-linecap="round"/>
<path d="M370.696 65.945L374.895 60.0945" stroke="#F7BB34" stroke-width="1.85805" stroke-miterlimit="10" stroke-linecap="round"/>
<path d="M354.711 88.2169L366.305 72.0652" stroke="#F7BB34" stroke-width="1.85805" stroke-miterlimit="10" stroke-linecap="round"/>
<path d="M355.381 49.8044L356.793 45.9614" stroke="#F7BB34" stroke-width="1.85805" stroke-miterlimit="10" stroke-linecap="round"/>
<path d="M350.18 64.004L354.032 53.4878" stroke="#F7BB34" stroke-width="1.85805" stroke-miterlimit="10" stroke-linecap="round"/>
<path d="M318.398 56.552L316.893 52.4573" stroke="#F7BB34" stroke-width="1.85805" stroke-miterlimit="10" stroke-linecap="round"/>
<path d="M321.558 64.183L319.625 58.928" stroke="#F7BB34" stroke-width="1.85805" stroke-miterlimit="10" stroke-linecap="round"/>
</svg>
