<svg width="22" height="28" viewBox="0 0 22 28" fill="none" xmlns="http://www.w3.org/2000/svg">
<path d="M6.79798 6.12023C7.13376 5.82418 7.56012 5.66162 8.00084 5.66162C8.44156 5.66162 8.86791 5.82418 9.20369 6.12023L14.7751 11.0316C14.9802 11.2124 15.1449 11.4373 15.2579 11.6907C15.3709 11.9441 15.4294 12.2199 15.4294 12.4991V20.18C15.4294 20.5729 15.2789 20.9498 15.011 21.2277C14.7431 21.5055 14.3797 21.6616 14.0008 21.6616H11.7151C11.3362 21.6616 10.9729 21.5055 10.705 21.2277C10.4371 20.9498 10.2866 20.5729 10.2866 20.18V16.3277C10.2866 16.0142 10.1669 15.7135 9.95364 15.4914C9.74042 15.2692 9.45105 15.1437 9.14884 15.1423H6.85227C6.55015 15.1439 6.26093 15.2695 6.04784 15.4916C5.83474 15.7137 5.71512 16.0143 5.71512 16.3277V20.18C5.71512 20.3745 5.67817 20.5672 5.60638 20.747C5.53459 20.9267 5.42936 21.0901 5.2967 21.2277C5.16405 21.3652 5.00656 21.4744 4.83324 21.5488C4.65992 21.6233 4.47415 21.6616 4.28655 21.6616H2.00084C1.62196 21.6616 1.25859 21.5055 0.990685 21.2277C0.722775 20.9498 0.572266 20.5729 0.572266 20.18V12.4991C0.572281 12.2199 0.630802 11.9441 0.743776 11.6907C0.856751 11.4373 1.02148 11.2124 1.22655 11.0316L6.79798 6.12023Z" fill="#D23757"/>
</svg>
