<svg width="42" height="55" viewBox="0 0 42 55" fill="none" xmlns="http://www.w3.org/2000/svg">
<rect x="10.5967" y="5.00006" width="30" height="41" fill="white"/>
<path d="M21.3826 18.164C21.2235 17.9518 21.1174 17.7396 21.1704 17.5274C21.2235 17.3152 21.2765 17.103 21.4887 16.8908C21.6479 16.6786 21.9131 16.6255 22.2845 16.5725H27.059C26.8999 16.095 26.5816 15.6706 26.1572 15.4054C25.7858 15.1931 25.4675 15.034 25.0962 14.981C24.7779 14.9279 24.4065 14.8748 24.0352 14.8748C23.6638 14.8748 23.3455 14.8748 22.9741 14.8748C22.6028 14.8748 22.2314 14.8748 21.8601 14.8218H21.4887C21.2235 14.7157 21.0643 14.5565 20.9582 14.3974C20.8521 14.2382 20.7991 14.0791 20.8521 13.8669C20.9052 13.6547 20.9582 13.5486 21.0643 13.3894C21.1704 13.2303 21.3296 13.1242 21.4887 13.0711C22.6558 13.0711 23.876 13.0711 25.0431 13.0711C26.2102 13.0711 27.4835 13.0711 28.8628 13.0711C29.1811 13.1772 29.3933 13.2833 29.5524 13.4955C29.7116 13.6547 29.8177 13.8669 29.8177 14.026C29.8177 14.2382 29.8177 14.3974 29.6055 14.5565C29.4463 14.7157 29.2341 14.8218 28.9689 14.9279H28.3853C28.5445 15.1932 28.7036 15.4584 28.8097 15.7237C28.9158 15.9889 29.0219 16.3072 29.075 16.6255H30.0829C30.4012 16.7316 30.6134 16.8377 30.7195 17.0499C30.8787 17.2621 30.9317 17.4213 30.9317 17.6335C30.9317 17.8457 30.8256 18.0579 30.6665 18.2171C30.5073 18.3762 30.2951 18.5354 29.9768 18.5884H28.9158C28.8097 18.9067 28.6506 19.225 28.4914 19.5433C28.3323 19.8617 28.067 20.1269 27.8018 20.3391C27.2712 20.8166 26.6877 21.1879 26.1572 21.4532C25.5736 21.7184 24.937 21.8776 24.2474 21.9837C25.3084 22.9917 26.3163 23.9996 27.3773 24.9546C27.5365 25.2198 27.6426 25.432 27.6426 25.6973C27.6426 25.9625 27.5896 26.1217 27.4304 26.2808C27.3243 26.44 27.1121 26.5461 26.8999 26.5992C26.6877 26.5992 26.4224 26.5992 26.1572 26.44C25.3614 25.6973 24.6187 24.9546 23.823 24.2119C23.0272 23.4691 22.2845 22.7264 21.4887 21.9837C21.3296 21.7715 21.2235 21.5593 21.2235 21.4001C21.2235 21.1879 21.2235 21.0288 21.3296 20.8696C21.3826 20.7105 21.5418 20.6044 21.6479 20.4452C21.807 20.3391 21.9662 20.2861 22.1253 20.233C22.5497 20.233 22.9211 20.233 23.2924 20.18C23.6638 20.18 24.0882 20.0739 24.4596 19.9678C24.8309 19.8617 25.2023 19.7556 25.5736 19.5433C25.945 19.3842 26.2633 19.1189 26.5816 18.8537C26.6877 18.8006 26.7938 18.6415 26.8999 18.4823H22.3375C21.9662 18.4823 21.7009 18.3232 21.5418 18.111L21.3826 18.164Z" fill="black"/>
<path d="M20.3232 31.1617H30.562" stroke="black" stroke-width="2.12204" stroke-linecap="round" stroke-linejoin="round"/>
<path d="M20.3232 37.4747H30.562" stroke="black" stroke-width="2.12204" stroke-linecap="round" stroke-linejoin="round"/>
<path d="M18.0946 4.84821H12.1529C10.9328 4.84821 9.9248 6.43974 9.9248 8.40263V28.7212" stroke="black" stroke-width="2.12204" stroke-linecap="round" stroke-linejoin="round"/>
<path d="M13.1611 46.4403H38.6785C39.8987 46.4403 40.9066 44.8488 40.9066 42.8859V8.40263C40.9066 6.49279 39.8987 4.84821 38.6785 4.84821H32.5777" stroke="black" stroke-width="2.12204" stroke-linecap="round" stroke-linejoin="round"/>
<path d="M12.5776 25.8566L2.02055 40.3927C1.70225 40.8171 2.02055 41.4006 2.55106 41.4006H9.2885C9.71291 41.4006 10.0312 41.772 9.92511 42.1964L7.32562 52.5944C7.16647 53.2841 8.06834 53.7085 8.49274 53.1249L19.8456 36.9974C20.1639 36.573 19.8456 35.9894 19.3151 35.9894L13.3734 36.0955C13.0021 36.0955 12.6837 35.7772 12.7368 35.3528L13.7448 26.281C13.8509 25.6444 12.949 25.2731 12.5776 25.8036V25.8566Z" fill="#FFC470" stroke="black" stroke-width="2.12204" stroke-linecap="round" stroke-linejoin="round"/>
<path d="M32.5779 4.90134C32.684 5.32575 32.737 5.75016 32.737 6.22762V8.34966H18.042V6.22762C18.042 3.52201 20.164 1.39996 22.8696 1.39996H27.9094C30.1375 1.39996 31.9943 2.83234 32.5779 4.90134Z" fill="#B0B0B0" stroke="black" stroke-width="2.12204" stroke-linecap="round" stroke-linejoin="round"/>
</svg>
