<svg width="45" height="55" viewBox="0 0 45 55" fill="none" xmlns="http://www.w3.org/2000/svg">
<rect x="6.99976" y="5.00012" width="22" height="45" fill="white"/>
<path d="M29.4585 30.666V26.1102" stroke="black" stroke-width="2.19558" stroke-linecap="round" stroke-linejoin="round"/>
<path d="M15.2417 50.2614H26.1099H15.2417Z" fill="white"/>
<path d="M15.2417 50.2614H26.1099" stroke="black" stroke-width="2.19558" stroke-linecap="round" stroke-linejoin="round"/>
<path d="M29.4582 9.80809V9.09454C29.4582 7.00876 28.7996 5.25232 27.9213 5.25232H15.2417" fill="white"/>
<path d="M29.4582 9.80809V9.09454C29.4582 7.00876 28.7996 5.25232 27.9213 5.25232H15.2417" stroke="black" stroke-width="2.19558" stroke-linecap="round" stroke-linejoin="round"/>
<path d="M16.3938 36.9232H23.9687C24.9567 36.9232 25.6154 37.8563 25.3409 38.7895L23.1453 45.2663H16.3938" fill="#DEDEDE"/>
<path d="M16.3938 36.9232H23.9687C24.9567 36.9232 25.6154 37.8563 25.3409 38.7895L23.1453 45.2663H16.3938" stroke="black" stroke-width="2.19558" stroke-linecap="round" stroke-linejoin="round"/>
<path d="M23.2006 35.3865V36.8136H16.3394V34.0691L19.9072 32.9714C21.5539 32.4225 23.2006 33.6849 23.2006 35.3865Z" fill="#DE3B5C" stroke="black" stroke-width="2.19558" stroke-linecap="round" stroke-linejoin="round"/>
<path d="M32.2033 53.3898C35.8108 53.3898 38.7352 50.4655 38.7352 46.8581C38.7352 43.2507 35.8108 40.3263 32.2033 40.3263C28.5958 40.3263 25.6714 43.2507 25.6714 46.8581C25.6714 50.4655 28.5958 53.3898 32.2033 53.3898Z" fill="#B0B0B0" stroke="black" stroke-width="2.19558" stroke-linecap="round" stroke-linejoin="round"/>
<path d="M26.4387 31.709L29.0734 31.215C29.8419 31.0503 30.6104 31.5992 30.6653 32.3676L30.9946 35.0023L29.2381 36.8137" stroke="black" stroke-width="2.19558" stroke-linecap="round" stroke-linejoin="round"/>
<path d="M32.2016 49.7672C33.8386 49.7672 35.1657 48.4402 35.1657 46.8032C35.1657 45.1663 33.8386 43.8392 32.2016 43.8392C30.5646 43.8392 29.2375 45.1663 29.2375 46.8032C29.2375 48.4402 30.5646 49.7672 32.2016 49.7672Z" fill="white" stroke="black" stroke-width="2.19558" stroke-linecap="round" stroke-linejoin="round"/>
<path d="M32.2557 46.1995L25.3944 29.129L22.0461 30.2268" stroke="black" stroke-width="2.19558" stroke-linecap="round" stroke-linejoin="round"/>
<path d="M15.2433 5.58169C15.2433 3.11169 14.7492 1.24547 14.0906 1.41014L2.01472 4.37413C1.52071 4.48391 1.13647 6.29524 1.13647 8.43591C1.13647 8.38102 1.13647 46.3092 1.13647 46.3092C1.13647 48.4499 1.52071 50.2612 2.01472 50.4259L14.0906 53.3899C14.6943 53.5546 15.2433 51.6884 15.2433 49.2184V5.58169Z" fill="white" stroke="black" stroke-width="2.19558" stroke-linecap="round" stroke-linejoin="round"/>
<path d="M35.4434 20.4017L42.9633 24.4086C43.622 24.7928 43.8416 25.5613 43.5122 26.22C43.128 26.8786 42.3046 27.0982 41.7009 26.7688L34.1809 22.762" stroke="black" stroke-width="2.19558" stroke-linecap="round" stroke-linejoin="round"/>
<path d="M27.7035 25.9456C32.2205 25.9456 35.8822 22.284 35.8822 17.7672C35.8822 13.2504 32.2205 9.58875 27.7035 9.58875C23.1866 9.58875 19.5249 13.2504 19.5249 17.7672C19.5249 22.284 23.1866 25.9456 27.7035 25.9456Z" fill="white" stroke="black" stroke-width="2.19558" stroke-linecap="round" stroke-linejoin="round"/>
<path d="M10.7417 24.7379V30.5561" stroke="black" stroke-width="2.19558" stroke-linecap="round" stroke-linejoin="round"/>
</svg>
