<svg width="61" height="55" viewBox="0 0 61 55" fill="none" xmlns="http://www.w3.org/2000/svg">
<path d="M14.4033 4.03119C14.4033 2.50788 15.6497 1.40002 17.0345 1.40002H52.6936C54.2169 1.40002 55.3248 2.64637 55.3248 4.03119V24.1803C55.3248 25.7036 54.0784 26.8115 52.6936 26.8115H17.0345C15.5112 26.8115 14.4033 25.5652 14.4033 24.1803" fill="#C9EFDF"/>
<path d="M14.4033 4.03119C14.4033 2.50788 15.6497 1.40002 17.0345 1.40002H52.6936C54.2169 1.40002 55.3248 2.64637 55.3248 4.03119V24.1803C55.3248 25.7036 54.0784 26.8115 52.6936 26.8115H17.0345C15.5112 26.8115 14.4033 25.5652 14.4033 24.1803" stroke="black" stroke-width="2.76964" stroke-linecap="round" stroke-linejoin="round"/>
<path d="M30.4004 12.3398C30.1927 12.1321 30.1234 11.8551 30.1234 11.6474C30.1234 11.3704 30.2619 11.1627 30.4696 10.955C30.6774 10.7472 30.9543 10.6088 31.3698 10.6088H36.6321C36.4244 10.0548 36.0782 9.63938 35.6627 9.29318C35.2473 9.01622 34.9011 8.87774 34.4856 8.80849C34.0702 8.73925 33.724 8.67 33.3085 8.67C32.8931 8.67 32.5469 8.67 32.1314 8.67C31.716 8.67 31.3005 8.67 30.8851 8.67H30.4696C30.1927 8.53152 29.985 8.39304 29.8465 8.18532C29.708 7.97759 29.708 7.83911 29.708 7.63139C29.708 7.42366 29.8465 7.28519 29.9157 7.07747C30.0542 6.93899 30.1927 6.8005 30.4004 6.73126C31.716 6.73126 33.0316 6.73126 34.3471 6.73126C35.6627 6.73126 37.1168 6.73126 38.5709 6.73126C38.9171 6.8005 39.1248 7.00822 39.3325 7.1467C39.5402 7.35443 39.6095 7.56215 39.6095 7.76988C39.6095 7.9776 39.6095 8.18532 39.4018 8.39304C39.194 8.60077 38.9863 8.73925 38.6401 8.80849H38.0169C38.2247 9.08546 38.3631 9.43166 38.5016 9.70862C38.6401 10.0548 38.7093 10.3318 38.7786 10.678H39.8864C40.2326 10.7472 40.4404 10.955 40.6481 11.1627C40.7866 11.3704 40.8558 11.5781 40.8558 11.8551C40.8558 12.0628 40.7173 12.2705 40.5788 12.4783C40.4404 12.686 40.1634 12.8245 39.8172 12.8937H38.6401C38.5016 13.2399 38.3631 13.5861 38.1554 13.9323C37.9477 14.2785 37.6707 14.5555 37.3937 14.8325C36.7706 15.3864 36.1474 15.8018 35.5243 16.0788C34.9011 16.3558 34.2087 16.5635 33.3778 16.702C34.5549 17.8098 35.732 18.9177 36.8398 20.0255C37.0476 20.3025 37.1168 20.5795 37.1168 20.8564C37.1168 21.1334 37.0476 21.3411 36.9091 21.5488C36.7706 21.7566 36.5629 21.8258 36.2859 21.8951C36.0089 21.8951 35.732 21.895 35.455 21.7566C34.5549 20.9257 33.724 20.0948 32.8931 19.2639C32.0622 18.433 31.1621 17.6021 30.3312 16.7712C30.1927 16.5635 30.0542 16.2865 30.0542 16.0788C30.0542 15.8711 30.0542 15.6634 30.1927 15.5249C30.2619 15.3172 30.4004 15.1787 30.5389 15.1094C30.6774 14.9709 30.8851 14.9017 31.0236 14.8325C31.439 14.8325 31.9237 14.8325 32.3392 14.7632C32.7546 14.7632 33.17 14.6247 33.5855 14.5555C34.0009 14.417 34.4164 14.2785 34.8318 14.0708C35.2473 13.8631 35.5935 13.6554 35.9397 13.3092C36.0782 13.2399 36.1474 13.1014 36.2859 12.8937H31.1621C30.7466 12.8937 30.4697 12.686 30.2619 12.4783L30.4004 12.3398Z" fill="black"/>
<path d="M30.4004 12.3398C30.1927 12.1321 30.1234 11.8551 30.1234 11.6474C30.1234 11.3704 30.2619 11.1627 30.4696 10.955C30.6774 10.7472 30.9543 10.6088 31.3698 10.6088H36.6321C36.4244 10.0548 36.0782 9.63938 35.6627 9.29318C35.2473 9.01622 34.9011 8.87774 34.4856 8.80849C34.0702 8.73925 33.724 8.67 33.3085 8.67C32.8931 8.67 32.5469 8.67 32.1314 8.67C31.716 8.67 31.3005 8.67 30.8851 8.67H30.4696C30.1927 8.53152 29.985 8.39304 29.8465 8.18532C29.708 7.9776 29.708 7.83911 29.708 7.63139C29.708 7.42366 29.8465 7.28519 29.9157 7.07747C30.0542 6.93899 30.1927 6.8005 30.4004 6.73126C31.716 6.73126 33.0316 6.73126 34.3471 6.73126C35.6627 6.73126 37.1168 6.73126 38.5709 6.73126C38.9171 6.8005 39.1248 7.00822 39.3325 7.1467C39.5402 7.35443 39.6095 7.56215 39.6095 7.76988C39.6095 7.9776 39.6095 8.18532 39.4018 8.39304C39.194 8.60077 38.9863 8.73925 38.6401 8.80849H38.0169C38.2247 9.08546 38.3631 9.43166 38.5016 9.70862C38.6401 10.0548 38.7093 10.3318 38.7786 10.678H39.8864C40.2326 10.7472 40.4404 10.955 40.6481 11.1627C40.7866 11.3704 40.8558 11.5781 40.8558 11.8551C40.8558 12.0628 40.7173 12.2705 40.5788 12.4783C40.4404 12.686 40.1634 12.8245 39.8172 12.8937H38.6401C38.5016 13.2399 38.3631 13.5861 38.1554 13.9323C37.9477 14.2785 37.6707 14.5555 37.3937 14.8325C36.7706 15.3864 36.1474 15.8018 35.5243 16.0788C34.9011 16.3558 34.2087 16.5635 33.3778 16.702C34.5549 17.8098 35.732 18.9177 36.8398 20.0255C37.0476 20.3025 37.1168 20.5795 37.1168 20.8564C37.1168 21.1334 37.0476 21.3411 36.9091 21.5488C36.7706 21.7566 36.5629 21.8258 36.2859 21.8951C36.0089 21.8951 35.732 21.895 35.455 21.7566C34.5549 20.9257 33.724 20.0948 32.8931 19.2639C32.0622 18.433 31.1621 17.6021 30.3312 16.7712C30.1927 16.5635 30.0542 16.2865 30.0542 16.0788C30.0542 15.8711 30.0542 15.6634 30.1927 15.5249C30.2619 15.3172 30.4004 15.1787 30.5389 15.1094C30.6774 14.9709 30.8851 14.9017 31.0236 14.8325C31.439 14.8325 31.9237 14.8325 32.3392 14.7632C32.7546 14.7632 33.17 14.6247 33.5855 14.5555C34.0009 14.417 34.4164 14.2785 34.8318 14.0708C35.2473 13.8631 35.5935 13.6554 35.9397 13.3092C36.0782 13.2399 36.1474 13.1014 36.2859 12.8937H31.1621C30.7466 12.8937 30.4697 12.686 30.2619 12.4783L30.4004 12.3398Z" stroke="black" stroke-width="0.346205" stroke-miterlimit="10"/>
<path d="M58.2346 32.42C58.6501 32.42 58.9963 33.0432 58.9963 33.8049V52.0153C58.9963 52.7769 58.6501 53.4001 58.2346 53.4001H52.7646C52.3491 53.4001 52.0029 52.7769 52.0029 52.0153V33.8049C52.0029 33.0432 52.3491 32.42 52.7646 32.42H58.2346Z" fill="#D23757" fill-opacity="0.7" stroke="black" stroke-width="2.76964" stroke-linecap="round" stroke-linejoin="round"/>
<path d="M17.6606 6.52356H9.4209" stroke="black" stroke-width="2.76964" stroke-linecap="round" stroke-linejoin="round"/>
<path d="M17.6599 11.4398H1.80371" stroke="black" stroke-width="2.76964" stroke-linecap="round" stroke-linejoin="round"/>
<path d="M17.3836 21.203H9.4209" stroke="black" stroke-width="2.76964" stroke-linecap="round" stroke-linejoin="round"/>
<path d="M17.6605 16.2867H5.12793" stroke="black" stroke-width="2.76964" stroke-linecap="round" stroke-linejoin="round"/>
<path d="M47.2966 33.3202L46.258 32.974C43.9038 32.2123 41.4803 32.2815 39.1261 33.1817L34.7639 34.8435C34.2793 35.0512 33.7253 35.1204 33.1714 35.1204H26.6627C25.5549 35.1204 24.6548 35.8821 24.5163 36.9207C24.3778 37.9593 25.0009 38.9287 26.0396 39.2057L35.1794 41.906C32.4097 41.6983 28.8092 41.1444 24.9317 39.8981C19.8771 38.2363 15.9304 36.0898 13.0222 34.0818C10.1141 32.0738 11.2912 33.3202 10.3911 33.5971C9.0755 33.9433 8.10614 35.0512 8.24462 36.6437C8.24462 37.8208 9.0755 38.9287 10.1141 39.4826L18.2153 44.5372C24.724 48.5532 32.202 50.6997 39.8878 50.6997H52.0742V36.0898C50.6894 34.8435 49.0968 33.8741 47.3658 33.3894H47.2273L47.2966 33.3202Z" fill="white" stroke="black" stroke-width="2.76964" stroke-linecap="round" stroke-linejoin="round"/>
</svg>
