<svg width="59" height="40" viewBox="0 0 59 40" fill="none" xmlns="http://www.w3.org/2000/svg">
<path d="M28.499 9.60408C27.0343 8.73615 25.3527 8.13945 23.6711 7.86822L17.4871 6.94604L8.26538 19.8022L14.0697 25.281" stroke="black" stroke-width="1.9" stroke-linecap="round" stroke-linejoin="round"/>
<path d="M26.7087 37.161L27.7394 38.1374C28.3904 38.8969 29.3668 39.1681 30.2889 38.8969C31.4823 38.5172 31.8078 37.2153 31.8078 37.161C33.0012 38.1917 34.6286 38.4087 35.7677 37.7035C36.7442 37.1068 37.0154 36.0761 37.0696 35.7506C38.8055 36.944 40.9753 36.7813 42.1687 35.5879C43.3621 34.3403 43.0366 32.4959 43.0366 32.2789C44.3928 33.3096 46.2371 33.1469 47.3763 32.0077C48.5154 30.8685 48.5697 29.2954 47.8103 27.9935C42.8197 23.1114 37.8291 18.1751 32.7842 13.293" stroke="black" stroke-width="1.9" stroke-linecap="round" stroke-linejoin="round"/>
<path d="M32.73 13.3471L26.9799 20.7245C26.4375 21.4297 25.5695 21.7009 24.7559 21.4839C23.3455 21.1042 22.6403 19.5311 23.3997 18.2834L28.4446 9.65837C30.3432 8.13949 32.6215 7.10882 35.0625 6.72911L41.1923 5.75269L50.414 18.6089L44.1758 24.4674L32.73 13.3471Z" stroke="black" stroke-width="1.9" stroke-linecap="round" stroke-linejoin="round"/>
<path d="M13.7983 27.7766L13.6356 27.5596C12.9846 26.8001 13.0389 25.661 13.7441 25.01L14.9375 23.9251C15.6969 23.2742 16.8361 23.3284 17.487 24.0336L17.6498 24.2506C18.3007 25.01 18.2465 26.1492 17.5413 26.8001L16.3479 27.8851C15.6427 28.5902 14.4493 28.536 13.7983 27.7766Z" stroke="black" stroke-width="1.9" stroke-linecap="round" stroke-linejoin="round"/>
<path d="M16.4038 31.0852L16.241 30.8682C15.5901 30.1087 15.6443 28.9696 16.3495 28.3186L17.5429 27.2337C18.3024 26.5828 19.4415 26.637 20.0925 27.3422L20.2552 27.5592C20.9062 28.3186 20.8519 29.4578 20.1467 30.1087L18.9533 31.1936C18.2481 31.8446 17.109 31.7904 16.4038 31.0852Z" stroke="black" stroke-width="1.9" stroke-linecap="round" stroke-linejoin="round"/>
<path d="M26.0056 37.2694C25.2462 37.9204 24.1613 37.8661 23.5103 37.1609L23.2391 36.8897C22.5881 36.1845 22.6424 35.0454 23.3476 34.3944L24.324 33.4723C25.0292 32.8213 26.1684 32.8755 26.8193 33.5807L27.0905 33.852C27.7415 34.5572 27.6872 35.6963 26.982 36.3473L26.0056 37.2694Z" stroke="black" stroke-width="1.9" stroke-linecap="round" stroke-linejoin="round"/>
<path d="M19.0065 33.9598C18.3013 33.1461 18.3555 31.9527 19.1149 31.1932L20.7423 29.6744C21.556 28.9692 22.7494 29.0234 23.5088 29.7828C24.214 30.5965 24.1598 31.7899 23.4003 32.5494L21.773 34.0683C20.9593 34.7734 19.7659 34.7192 19.0065 33.9598Z" stroke="black" stroke-width="1.9" stroke-linecap="round" stroke-linejoin="round"/>
<path d="M3.38302 17.741L13.7982 3.14898C14.4491 2.28105 15.9137 2.22681 17.1072 3.14898C18.1378 3.90842 18.5718 5.10182 18.0293 5.91551L7.2887 20.9415C6.74625 21.701 5.44435 21.7552 4.41369 20.9415C3.22029 20.0736 2.78632 18.6632 3.38302 17.741Z" fill="#E07389" stroke="black" stroke-width="1.9" stroke-linecap="round" stroke-linejoin="round"/>
<path d="M44.5034 1.63004L54.8643 16.2763C55.5153 17.1443 55.027 18.5547 53.8336 19.4226C52.803 20.182 51.5011 20.1278 50.9586 19.4226L40.2722 4.34231C39.7298 3.58288 40.1095 2.33523 41.1944 1.63004C42.3878 0.762107 43.9067 0.816353 44.5034 1.63004Z" fill="#CBE0EF" stroke="black" stroke-width="1.9" stroke-linecap="round" stroke-linejoin="round"/>
</svg>
