<svg width="59" height="40" viewBox="0 0 59 40" fill="none" xmlns="http://www.w3.org/2000/svg">
<path d="M19.141 3.70801H14.4985C13.5528 3.70801 12.7791 4.95461 12.7791 6.45914V33.3257C12.7791 34.8302 13.5528 36.0768 14.4985 36.0768H30.3175" stroke="black" stroke-width="1.9" stroke-linecap="round" stroke-linejoin="round"/>
<path d="M36.9378 21.7193V6.45914C36.9378 4.95461 36.164 3.70801 35.2183 3.70801H30.9626" stroke="black" stroke-width="1.9" stroke-linecap="round" stroke-linejoin="round"/>
<path d="M16.863 11.1448H32.897" stroke="black" stroke-width="1.9" stroke-linecap="round" stroke-linejoin="round"/>
<path d="M16.863 15.5293H32.897" stroke="black" stroke-width="1.9" stroke-linecap="round" stroke-linejoin="round"/>
<path d="M16.863 19.957H32.897" stroke="black" stroke-width="1.9" stroke-linecap="round" stroke-linejoin="round"/>
<path d="M16.863 24.3413H30.6187" stroke="black" stroke-width="1.9" stroke-linecap="round" stroke-linejoin="round"/>
<path d="M22.9232 1H26.835C28.9413 1 30.6178 2.67647 30.6178 4.78281V6.45928H19.1404V4.78281C19.1404 2.67647 20.8169 1 22.9232 1Z" fill="#DEDEDE" stroke="black" stroke-width="1.9" stroke-linecap="round" stroke-linejoin="round"/>
<path d="M36.851 38.9998C41.6229 38.9998 45.4912 35.1314 45.4912 30.3595C45.4912 25.5876 41.6229 21.7192 36.851 21.7192C32.0791 21.7192 28.2107 25.5876 28.2107 30.3595C28.2107 35.1314 32.0791 38.9998 36.851 38.9998Z" fill="#FFC470" stroke="black" stroke-width="1.9" stroke-linecap="round" stroke-linejoin="round"/>
<path d="M33.4982 29.3708C33.3693 29.1989 33.3263 29.0269 33.3263 28.855C33.3263 28.683 33.4123 28.5111 33.5412 28.3821C33.6702 28.2532 33.8851 28.1672 34.186 28.1672H37.8829C37.7539 27.7803 37.539 27.4794 37.1951 27.2645C36.9372 27.0925 36.6363 26.9636 36.3783 26.9206C36.1204 26.8776 35.8195 26.8346 35.5616 26.8346C35.3037 26.8346 35.0028 26.8346 34.7448 26.8346C34.4869 26.8346 34.186 26.8346 33.8421 26.7916H33.5412C33.3263 26.7056 33.1973 26.5767 33.1114 26.4477C33.0254 26.3188 33.0254 26.1898 33.0254 26.0608C33.0254 25.9319 33.1114 25.8029 33.1973 25.674C33.2833 25.545 33.4123 25.459 33.5412 25.416C34.4439 25.416 35.3896 25.416 36.3353 25.416C37.281 25.416 38.2697 25.416 39.3014 25.416C39.5163 25.502 39.7313 25.588 39.8173 25.717C39.9462 25.8459 39.9892 26.0179 40.0322 26.1468C40.0752 26.2758 40.0322 26.4477 39.8602 26.5767C39.7313 26.7056 39.5593 26.7916 39.3444 26.8346H38.8715C39.0005 27.0495 39.1295 27.2645 39.2154 27.4794C39.3014 27.6943 39.3444 27.9093 39.3874 28.1672H40.1611C40.3761 28.2532 40.548 28.3391 40.677 28.5111C40.8059 28.64 40.8489 28.812 40.8489 28.9839C40.8489 29.1559 40.7629 29.2848 40.634 29.4138C40.505 29.5427 40.3331 29.6287 40.1182 29.7147H39.3014C39.2154 29.9726 39.0865 30.2305 38.9575 30.4455C38.8286 30.6604 38.6136 30.8753 38.3987 31.0903C37.9688 31.4771 37.539 31.778 37.1091 31.993C36.6792 32.2079 36.1634 32.3369 35.6046 32.4228C36.4213 33.1966 37.2381 33.9704 38.0548 34.7441C38.1838 34.9161 38.2697 35.131 38.2697 35.3029C38.2697 35.4749 38.2268 35.6468 38.0978 35.7758C38.0118 35.9047 37.8399 35.9907 37.6679 35.9907C37.496 35.9907 37.281 35.9907 37.0661 35.8618C36.4643 35.2599 35.8625 34.7011 35.2607 34.0993C34.6589 33.4975 34.0571 32.9387 33.4553 32.3799C33.3263 32.2079 33.2833 32.0789 33.2403 31.907C33.2403 31.778 33.2403 31.6061 33.3263 31.5201C33.3693 31.3912 33.4553 31.3052 33.5842 31.2192C33.7132 31.1332 33.7991 31.0903 33.9281 31.0473C34.229 31.0473 34.5729 31.0473 34.8738 31.0043C35.1747 31.0043 35.4756 30.9183 35.7765 30.8323C36.0774 30.7464 36.3353 30.6604 36.6362 30.5314C36.8942 30.4025 37.1951 30.2305 37.41 30.0156C37.496 29.9726 37.582 29.8866 37.6679 29.7577H34.1001C33.8421 29.7577 33.6272 29.6287 33.4982 29.4568V29.3708Z" fill="black"/>
</svg>
