<svg width="59" height="40" viewBox="0 0 59 40" fill="none" xmlns="http://www.w3.org/2000/svg">
<path d="M30.0855 24.4505L39.0189 35.245C39.8254 36.2376 39.7013 37.6645 38.7087 38.471C37.7161 39.2775 36.2893 39.1534 35.4828 38.1608L26.9216 27.6144" stroke="black" stroke-width="1.9" stroke-linecap="round" stroke-linejoin="round"/>
<path d="M19.2297 28.9169C26.9387 28.9169 33.1881 22.6675 33.1881 14.9585C33.1881 7.24946 26.9387 1.00006 19.2297 1.00006C11.5206 1.00006 5.27124 7.24946 5.27124 14.9585C5.27124 22.6675 11.5206 28.9169 19.2297 28.9169Z" stroke="black" stroke-width="1.9" stroke-linecap="round" stroke-linejoin="round"/>
<path d="M19.2297 23.7058C24.0607 23.7058 27.977 19.7895 27.977 14.9585C27.977 10.1275 24.0607 6.21121 19.2297 6.21121C14.3987 6.21121 10.4824 10.1275 10.4824 14.9585C10.4824 19.7895 14.3987 23.7058 19.2297 23.7058Z" stroke="black" stroke-width="1.9" stroke-linecap="round" stroke-linejoin="round"/>
<path d="M48.3873 20.1696L53.4744 21.7826C54.529 22.0928 54.529 23.5817 53.4744 23.8919L48.3873 25.3808L46.8984 30.4679C46.5882 31.5225 45.0993 31.5225 44.7891 30.4679L43.1762 25.3808L38.0271 23.8298C36.9724 23.5197 36.9724 22.0308 38.0271 21.7206L43.1762 20.1076L44.7891 15.0205C45.0993 13.9659 46.5882 13.9659 46.8984 15.0205L48.3873 20.1696Z" fill="#FFC470" stroke="black" stroke-width="1.9" stroke-linecap="round" stroke-linejoin="round"/>
<path d="M39.5779 3.91602V11.6707" stroke="black" stroke-width="1.9" stroke-linecap="round" stroke-linejoin="round"/>
<path d="M42.3082 7.82449H36.7869" stroke="black" stroke-width="1.9" stroke-linecap="round" stroke-linejoin="round"/>
</svg>
