<svg width="1065" height="214" viewBox="0 0 1065 214" fill="none" xmlns="http://www.w3.org/2000/svg">
<path d="M849.405 81.8838C850.669 81.0832 852.21 81.0832 853.672 81.0832C864.142 81.0832 873.704 80.4027 884.055 78.5613C893.103 76.9601 900.136 79.522 908.749 82.0439C919.812 85.2463 932.06 83.9653 942.215 78.4412C944.822 77.0001 947.351 75.3188 950.235 74.5583C957.584 72.6768 964.656 77.1202 971.65 78.5212C978.129 79.8022 983.898 83.6851 990.615 84.3657C996.699 84.9661 1002.7 83.0447 1008.67 81.6837C1014.64 80.3627 1022.14 79.6821 1027.87 82.164C1030.28 83.2048 1032.5 84.766 1034.95 85.8068C1040.87 88.2886 1047.59 87.2478 1053.87 86.087C1055.06 85.8868 1056.32 85.6466 1057.47 86.1269C1058.57 86.6073 1059.36 88.0484 1058.73 89.0892C1048.77 95.0137 1037.04 97.8959 1025.5 97.2154C1020.41 96.8951 1015.31 95.9343 1010.25 96.3346C1001.8 96.9751 994.408 100.578 985.755 99.4971C977.023 98.4163 969.24 93.6527 960.547 92.4118C943.756 89.9699 927.635 101.218 910.685 100.938C901.4 100.778 892.985 96.3347 883.897 95.6142C877.181 95.0938 869.674 96.9351 862.759 97.0953C860.468 97.1353 858.137 97.1753 856.003 96.3747C854.304 95.7342 852.842 94.6134 851.499 93.4125C849.8 91.8914 848.18 90.17 847.548 87.9684C847.311 87.2478 847.232 86.4472 847.311 85.6867C847.469 84.1255 848.141 82.6844 849.405 81.8838Z" fill="#F0F6FD"/>
<path d="M855.45 122.674C856.714 121.874 858.255 121.874 859.717 121.874C870.187 121.874 879.749 121.193 890.1 119.352C899.148 117.751 906.181 120.313 914.794 122.835C925.857 126.037 938.105 124.756 948.26 119.232C950.867 117.791 953.396 116.109 956.28 115.349C963.629 113.467 970.701 117.911 977.695 119.312C984.174 120.593 989.943 124.476 996.66 125.156C1002.74 125.757 1008.75 123.835 1014.72 122.474C1020.68 121.153 1028.19 120.473 1033.92 122.955C1036.33 123.995 1038.54 125.557 1040.99 126.597C1046.92 129.079 1053.63 128.038 1059.92 126.877C1061.1 126.677 1062.37 126.437 1063.51 126.918C1064.62 127.398 1065.41 128.839 1064.78 129.88C1054.82 135.804 1043.08 138.686 1031.55 138.006C1026.45 137.686 1021.35 136.725 1016.3 137.125C1007.84 137.766 1000.45 141.368 991.8 140.288C983.068 139.207 975.284 134.443 966.592 133.202C949.8 130.76 933.68 142.009 916.73 141.729C907.445 141.569 899.03 137.125 889.942 136.405C883.226 135.884 875.719 137.726 868.804 137.886C866.513 137.926 864.182 137.966 862.048 137.165C860.349 136.525 858.887 135.404 857.544 134.203C855.845 132.682 854.225 130.961 853.593 128.759C853.356 128.038 853.277 127.238 853.356 126.477C853.514 124.916 854.186 123.475 855.45 122.674Z" fill="#F0F6FD"/>
<path d="M823.565 163.465C824.829 162.665 826.37 162.665 827.832 162.665C838.302 162.665 847.864 161.984 858.216 160.143C867.263 158.542 874.296 161.104 882.91 163.625C893.972 166.828 906.221 165.547 916.375 160.023C918.982 158.582 921.511 156.9 924.395 156.14C931.744 154.258 938.817 158.702 945.81 160.103C952.29 161.384 958.058 165.267 964.775 165.947C970.859 166.548 976.865 164.626 982.831 163.265C988.797 161.944 996.304 161.264 1002.03 163.746C1004.44 164.786 1006.66 166.347 1009.11 167.388C1015.03 169.87 1021.75 168.829 1028.03 167.669C1029.22 167.468 1030.48 167.228 1031.63 167.708C1032.73 168.189 1033.52 169.63 1032.89 170.671C1022.93 176.595 1011.2 179.477 999.662 178.797C994.566 178.477 989.469 177.516 984.411 177.916C975.956 178.557 968.568 182.159 959.915 181.079C951.183 179.998 943.4 175.234 934.707 173.993C917.916 171.551 901.795 182.8 884.846 182.52C875.561 182.36 867.145 177.916 858.058 177.196C851.341 176.675 843.834 178.517 836.92 178.677C834.628 178.717 832.297 178.757 830.163 177.956C828.464 177.316 827.002 176.195 825.659 174.994C823.96 173.473 822.34 171.752 821.708 169.55C821.471 168.829 821.392 168.029 821.471 167.268C821.629 165.747 822.301 164.266 823.565 163.465Z" fill="#F0F6FD"/>
<path d="M953.988 52.1411C955.016 51.9409 956.043 51.1803 956.319 50.0195C956.635 48.6184 955.608 47.2174 954.423 46.737C952.526 45.9764 949.682 46.8171 947.627 46.8171C943.162 46.8171 938.737 46.4968 934.312 45.8963C930.243 45.376 927.951 43.9749 924.356 42.0134C920.326 39.7718 915.268 39.9319 911.357 42.4538C908.828 44.055 906.971 46.2567 904.047 46.657C900.57 47.1373 897.014 47.2574 893.498 47.4175C889.903 47.5776 886.149 48.1381 883.067 50.3397C879.195 53.1418 886.07 53.8624 887.413 53.8624C890.89 53.9425 894.328 53.3019 897.765 53.5021C906.339 53.9424 914.913 59.2265 923.091 56.3843C925.541 55.5437 927.793 53.9825 930.361 53.5421C934.036 52.9017 937.71 54.6229 941.424 54.3027C944.624 54.0225 947.627 52.2211 950.827 52.2211C951.46 52.2211 952.092 52.2611 952.724 52.3012C953.159 52.2211 953.593 52.2212 953.988 52.1411Z" fill="#F0F6FD"/>
<path d="M703.415 39.7717C700.293 39.0112 697.369 37.5701 694.248 36.9696C691.285 36.4092 688.164 36.6093 685.279 37.61C683.541 38.2105 681.881 39.0912 680.103 39.6115C674.73 41.1727 669.12 39.3313 663.707 40.4122C658.412 41.493 659.637 45.8963 664.339 46.5769C668.606 47.2173 673.11 45.496 677.14 46.9772C678.642 47.5376 679.985 48.4983 681.447 49.2589C686.86 52.0209 691.838 50.0194 697.409 49.6592C699.306 49.5391 700.53 50.2196 702.308 50.4598C705.904 50.9401 709.104 48.2181 712.581 47.7778C714.635 47.5376 716.69 48.218 718.745 48.2981C725.422 48.5383 723.288 42.6138 718.824 41.0126C714.952 39.6516 710.526 40.172 706.536 40.0519C705.311 40.0919 704.244 39.9719 703.415 39.7717Z" fill="#F0F6FD"/>
<path d="M941.78 122.274C941.741 123.515 941.029 125.757 939.133 126.317V117.871C941.108 118.431 941.859 120.793 941.78 122.274Z" fill="#F25F24"/>
<path d="M938.62 117.75C938.817 117.75 938.975 117.791 939.133 117.871V126.317C938.975 126.357 938.778 126.397 938.62 126.437C936.209 126.717 932.377 124.436 932.377 122.114C932.377 119.752 936.17 117.47 938.62 117.75Z" fill="#0D314F"/>
<path d="M812.858 60.7075C812.423 61.1078 812.344 61.6683 811.989 62.0686C811.356 62.7491 810.448 63.1094 809.539 63.3896C802.506 65.5913 795.236 66.8722 787.966 68.1131C782.04 69.1139 782.909 68.8337 781.526 69.1539C776.271 70.3148 771.886 71.1955 770.7 74.0777C769.95 75.9191 770.384 78.1207 771.886 79.4417C773.585 80.8828 776.745 80.5626 778.405 79.2015C779.393 78.3609 780.183 77.3201 781.329 76.6396C782.316 76.0391 783.818 75.919 784.963 75.7188C789.507 74.9182 794.09 74.3178 798.673 73.7173C803.375 73.0769 808.156 72.9968 812.858 72.1161C816.73 71.3956 821.629 70.0346 823.288 66.3518C825.461 61.5082 826.765 56.4243 828.622 51.5006C829.413 49.379 832.455 45.336 828.464 44.5354C827.042 44.2552 825.541 44.7755 824.237 45.4961C821.55 46.9372 819.298 49.0588 817.836 51.5807C816.769 53.4622 815.939 56.6245 814.478 58.9863C814.003 59.7469 813.45 60.1471 812.858 60.7075Z" fill="#C66D58"/>
<path d="M810.566 69.5542C811.949 69.5943 813.253 69.7544 814.675 69.5542C816.058 69.3541 817.441 68.9538 818.785 68.5936C819.733 68.3534 820.562 68.1932 821.392 67.6328C821.985 67.2325 822.894 67.0724 823.249 66.3919C825.62 61.7084 826.766 56.3843 828.583 51.5006C829.373 49.379 832.416 45.336 828.425 44.5354C827.003 44.2552 825.501 44.7755 824.197 45.4961C821.511 46.9372 819.259 49.0588 817.797 51.5807C816.73 53.4622 815.9 56.6245 814.438 58.9863C813.964 59.7469 813.451 60.1071 812.858 60.6676C812.423 61.0679 812.344 61.6283 811.989 62.0286C810.764 63.3896 808.749 64.1902 807.208 65.0709C805.193 66.2318 803.257 67.5527 801.439 69.0338C804.442 69.4341 807.524 69.5142 810.566 69.5542Z" fill="#E29B7F"/>
<path d="M918.389 193.087L875.125 149.254" stroke="#688D9E" stroke-width="2.51087" stroke-miterlimit="10"/>
<path d="M918.389 149.254L875.125 193.087" stroke="#688D9E" stroke-width="2.51087" stroke-miterlimit="10"/>
<path d="M927.358 171.151H866.156" stroke="#688D9E" stroke-width="2.51087" stroke-miterlimit="10"/>
<path d="M896.738 202.134V140.167" stroke="#688D9E" stroke-width="2.51087" stroke-miterlimit="10"/>
<path d="M739.647 193.087L696.383 149.254" stroke="#688D9E" stroke-width="2.51087" stroke-miterlimit="10"/>
<path d="M739.647 149.254L696.383 193.087" stroke="#688D9E" stroke-width="2.51087" stroke-miterlimit="10"/>
<path d="M748.615 171.151H687.414" stroke="#688D9E" stroke-width="2.51087" stroke-miterlimit="10"/>
<path d="M718.035 202.134V140.167" stroke="#688D9E" stroke-width="2.51087" stroke-miterlimit="10"/>
<path opacity="0.2" d="M1010.17 212.662H1" stroke="#BED5E6" stroke-width="1.67391" stroke-miterlimit="10" stroke-linecap="round"/>
<path d="M677.297 171.151C677.297 193.928 695.511 212.422 718.032 212.422C740.513 212.422 758.767 193.928 758.767 171.151C758.767 148.374 740.553 129.88 718.032 129.88C695.511 129.88 677.297 148.374 677.297 171.151ZM687.412 171.151C687.412 154.018 701.122 140.167 717.992 140.167C734.903 140.167 748.573 154.058 748.573 171.151C748.573 188.244 734.863 202.134 717.992 202.134C701.122 202.134 687.412 188.284 687.412 171.151Z" fill="#0D314F"/>
<path d="M825.421 121.193L828.345 152.537L779.708 149.935L772.596 122.234L825.421 121.193Z" fill="#254A69"/>
<path d="M893.972 212.302C916.413 213.863 935.852 196.69 937.354 173.953C938.895 151.216 921.945 131.521 899.503 130C877.061 128.439 857.622 145.612 856.121 168.349C854.58 191.086 871.53 210.781 893.972 212.302ZM866.156 171.151C866.156 154.018 879.866 140.168 896.737 140.168C913.648 140.168 927.318 154.058 927.318 171.151C927.318 188.244 913.608 202.134 896.737 202.134C879.827 202.134 866.156 188.284 866.156 171.151Z" fill="#0D314F"/>
<path d="M718.032 212.422C740.529 212.422 758.767 193.944 758.767 171.151C758.767 148.357 740.529 129.88 718.032 129.88C695.535 129.88 677.297 148.357 677.297 171.151C677.297 193.944 695.535 212.422 718.032 212.422Z" stroke="#71B5BC" stroke-width="0.836956" stroke-miterlimit="10"/>
<path d="M896.738 188.564C906.23 188.564 913.925 180.768 913.925 171.151C913.925 161.534 906.23 153.738 896.738 153.738C887.246 153.738 879.551 161.534 879.551 171.151C879.551 180.768 887.246 188.564 896.738 188.564Z" fill="#688D9E"/>
<path d="M896.739 179.557C901.321 179.557 905.036 175.794 905.036 171.151C905.036 166.508 901.321 162.745 896.739 162.745C892.156 162.745 888.441 166.508 888.441 171.151C888.441 175.794 892.156 179.557 896.739 179.557Z" fill="#0A3451"/>
<path d="M738.735 80.6426C739.21 84.0852 739.605 88.0481 739.605 92.5315C739.605 97.0549 739.249 101.138 738.775 104.581C735.061 102.899 733.718 96.6146 733.639 93.132C733.481 89.0089 734.903 82.3639 738.735 80.6426Z" fill="#FFFDF7" stroke="#E1B77D" stroke-width="0.836956" stroke-miterlimit="10"/>
<path d="M738.736 80.6426C739.131 80.4825 739.527 80.3224 739.961 80.2824C744.821 79.5218 752.486 86.0067 752.525 92.6117C752.525 99.2567 744.821 105.742 739.961 104.941C739.527 104.861 739.131 104.741 738.736 104.581C739.21 101.098 739.606 97.055 739.566 92.5316C739.566 88.0482 739.21 84.0852 738.736 80.6426Z" fill="#063146"/>
<path d="M738.735 104.581C738.735 104.621 738.735 104.701 738.695 104.741" stroke="black" stroke-width="0.836956" stroke-miterlimit="10"/>
<path d="M710.841 128.919C709.023 129.239 706.771 130.08 705.349 128.439C702.939 125.677 710.05 123.675 711.828 123.235C722.575 120.633 733.796 123.195 743.121 128.879C750.47 133.362 756.594 139.807 760.703 147.413C763.705 152.937 765.681 158.942 765.444 165.306C765.365 167.548 765.207 170.43 764.14 172.432C763.705 173.312 763.152 174.033 762.204 173.553C761.493 173.192 760.979 172.272 760.742 171.511C760.031 169.269 760.15 166.627 759.794 164.266C759.438 162.024 758.925 159.862 758.213 157.701C756.87 153.538 754.855 149.575 752.287 146.012C747.19 138.927 739.999 133.482 731.781 130.6C727.356 129.079 722.694 128.278 717.992 128.278C715.621 128.319 713.211 128.519 710.841 128.919Z" fill="#3B8486"/>
<path d="M923.842 116.55C935.971 123.955 944.98 136.525 946.165 150.936C946.323 152.857 946.995 159.222 943.478 158.141C941.463 157.541 941.029 154.659 940.633 152.897C937.868 140.008 924.908 130.44 913.371 125.957C903.375 122.074 892.194 121.393 881.803 123.955C880.894 124.196 879.906 124.436 878.997 124.236C874.059 123.075 882.632 115.349 884.489 114.468C887.176 113.147 889.586 111.586 892.549 110.866C894.485 110.385 896.422 110.105 898.318 109.945C907.247 109.304 916.177 111.866 923.842 116.55Z" fill="#3B8486"/>
<path d="M921.312 96.1743C920.917 96.1743 920.601 96.4545 920.483 96.8148L917.085 109.264C917.006 109.624 916.65 109.905 916.295 109.905L886.464 111.226L819.336 112.026C819.218 112.026 819.099 111.986 818.981 111.946L776.191 91.851C776.112 91.8109 775.993 91.7709 775.914 91.7709C774.611 91.6508 773.623 91.3706 772.438 92.0511C770.778 93.0119 768.842 93.6123 766.946 93.7724C765.839 93.8525 764.614 93.7724 763.903 92.9318C763.113 91.971 763.034 90.8502 761.691 90.4499C761.019 90.2498 759.478 89.9696 759.123 90.7702L750.509 110.545C750.272 111.105 750.667 111.746 751.26 111.786L759.162 112.066C759.36 112.066 759.597 112.146 759.755 112.306L767.578 120.152C768.921 121.513 770.739 122.274 772.635 122.274H821.154C823.05 122.274 824.591 123.715 824.749 125.636L826.606 147.493C826.804 149.735 824.947 151.656 822.734 151.456L783.066 148.454C780.419 148.254 778.404 150.775 779.154 153.377L783.777 169.509C785.199 174.473 789.703 177.916 794.84 177.916H840.988C844.82 177.916 848.1 175.154 848.811 171.351L849.878 165.747C850.352 163.345 851.3 161.063 852.683 159.062L872.043 131.201C875.006 126.917 879.431 123.875 884.449 122.674L917.835 114.668C918.151 114.588 918.389 114.348 918.468 114.028L922.182 97.3351C922.3 96.6946 921.865 96.1743 921.312 96.1743Z" fill="#063146"/>
<path d="M894.999 159.102L892.747 151.696C892.55 151.056 891.878 150.696 891.206 150.896L889.626 151.376C888.994 151.576 888.638 152.257 888.836 152.937L891.088 160.343C891.285 160.983 891.957 161.344 892.629 161.143L894.209 160.663C894.841 160.463 895.197 159.742 894.999 159.102Z" fill="#2A6893"/>
<path d="M795.355 151.576L821.432 153.858C826.331 154.298 830.085 158.541 830.085 163.625V165.547C830.085 170.831 826.055 175.154 820.997 175.354L795.592 176.395C790.693 176.595 786.505 172.912 785.833 167.868L785.161 162.664C784.371 156.46 789.31 151.056 795.355 151.576Z" fill="#FCFAFC"/>
<path d="M866.749 123.715H832.889C831.506 123.715 830.519 125.076 830.953 126.397L837.986 149.214C838.263 150.095 839.053 150.655 839.922 150.655H851.182C851.854 150.655 852.486 150.335 852.842 149.775L868.409 126.957C869.357 125.596 868.369 123.715 866.749 123.715Z" stroke="black" stroke-width="0.836956" stroke-miterlimit="10"/>
<path d="M867.421 121.834H832.178C829.926 121.834 828.306 124.075 828.978 126.277L836.366 150.175C836.801 151.616 838.104 152.577 839.566 152.577H851.103C852.21 152.577 853.237 152.016 853.869 151.096L870.187 127.198C871.728 124.916 870.147 121.834 867.421 121.834Z" fill="#254A69"/>
<path d="M866.749 123.715H832.889C831.506 123.715 830.519 125.076 830.953 126.397L837.986 149.214C838.263 150.095 839.053 150.655 839.922 150.655H851.182C851.854 150.655 852.486 150.335 852.842 149.775L868.409 126.957C869.357 125.596 868.369 123.715 866.749 123.715Z" fill="#3C8483"/>
<path d="M785.002 129.72L784.331 133.322C784.252 133.803 784.37 134.283 784.449 134.763C785.002 137.565 787.254 147.173 787.333 147.493C787.413 147.773 804.086 148.734 809.459 149.094C810.605 149.174 811.672 148.534 812.146 147.493L817.282 136.124C817.48 135.644 817.559 135.164 817.519 134.643L816.966 129.96C816.808 128.559 815.623 127.518 814.279 127.518H787.768C786.385 127.438 785.239 128.399 785.002 129.72Z" fill="#0A3150"/>
<path d="M899.188 164.306C898.754 163.585 899.03 162.624 899.741 162.224L935.024 141.609C935.735 141.168 936.684 141.448 937.079 142.169C937.513 142.89 937.237 143.85 936.526 144.251L901.243 164.866C900.532 165.266 899.583 165.026 899.188 164.306Z" fill="#063146"/>
<path d="M780.103 78.0806L777.693 79.2815C777.575 79.3616 777.456 79.3616 777.298 79.4016L767.697 80.1621C767.144 80.2022 766.71 80.6425 766.71 81.203C766.67 82.0036 767.5 82.564 768.25 82.2037L776.943 77.9605C777.338 77.7603 777.812 77.8403 778.128 78.1206L779.195 79.0813C779.748 79.6017 779.629 80.5625 778.918 80.8827L766.196 86.8872C766.117 86.9273 766.038 86.9272 765.959 86.9673L760.902 88.0881C760.625 88.1282 760.348 88.0881 760.111 87.9279L758.215 86.6871C757.978 86.527 757.78 86.2467 757.741 85.9665L756.358 77.8404C756.279 77.4401 756.437 77.0398 756.792 76.7996L760.585 73.9975C761.218 73.5172 762.087 73.8774 762.245 74.598L762.561 75.959C762.679 76.3593 762.996 76.6795 763.43 76.7596L765.248 77.0798C765.603 77.1599 765.959 77.0398 766.196 76.7596L768.132 74.7981C768.369 74.558 768.724 74.4378 769.041 74.4779L779.748 75.999C780.854 76.1592 781.052 77.6002 780.103 78.0806Z" fill="#063146"/>
<path d="M787.61 65.191C788.985 65.191 790.099 62.4847 790.099 59.1464C790.099 55.8081 788.985 53.1018 787.61 53.1018C786.235 53.1018 785.121 55.8081 785.121 59.1464C785.121 62.4847 786.235 65.191 787.61 65.191Z" fill="#063146"/>
<path d="M762.403 65.191C763.559 65.191 764.497 62.8612 764.497 59.9871C764.497 57.1131 763.559 54.7832 762.403 54.7832C761.246 54.7832 760.309 57.1131 760.309 59.9871C760.309 62.8612 761.246 65.191 762.403 65.191Z" fill="#063146"/>
<path d="M768.449 75.0783L779.354 58.3457H785.518V59.9469H780.223L769.753 75.959L768.449 75.0783Z" fill="#063146"/>
<path d="M762.522 59.7466L764.458 77.3198L763.114 77.1998L761.139 58.8259" fill="#063146"/>
<path d="M783.975 88.9689V88.3684C783.975 87.8881 784.37 87.4878 784.844 87.4878H791.403C791.877 87.4878 792.272 87.8881 792.272 88.3684V88.9689C792.272 89.4493 791.877 89.8495 791.403 89.8495H784.883C784.37 89.8495 783.975 89.4493 783.975 88.9689Z" fill="#899BAB"/>
<path d="M789.428 140.288V134.163C789.428 133.202 790.178 132.442 791.127 132.442H808.63C809.578 132.442 810.329 133.202 810.329 134.163V141.328C810.329 142.329 809.499 143.09 808.551 143.05L791.048 142.009C790.139 141.929 789.428 141.168 789.428 140.288Z" fill="#3B8486"/>
<path d="M766.907 116.269L776.311 144.49L773.071 150.655L760.428 110.505L766.907 116.269Z" fill="#023159"/>
<path d="M718.033 188.564C727.525 188.564 735.22 180.768 735.22 171.151C735.22 161.534 727.525 153.738 718.033 153.738C708.541 153.738 700.846 161.534 700.846 171.151C700.846 180.768 708.541 188.564 718.033 188.564Z" fill="#688D9E"/>
<path d="M753.078 140.167C754.421 137.686 755.725 134.804 756.753 131.441C759.36 122.995 759.044 115.549 758.293 110.545" stroke="#063146" stroke-width="2.51087" stroke-miterlimit="10"/>
<path d="M718.033 179.557C722.616 179.557 726.331 175.794 726.331 171.151C726.331 166.508 722.616 162.745 718.033 162.745C713.451 162.745 709.736 166.508 709.736 171.151C709.736 175.794 713.451 179.557 718.033 179.557Z" fill="#0A3451"/>
<path d="M827.633 112.987C827.12 113.708 826.843 114.588 827.041 115.429C827.594 117.831 830.913 117.751 832.809 117.671L904.836 115.029C907.642 114.909 910.565 114.468 913.134 113.147C915.188 112.106 916.492 109.064 915.662 106.943C914.714 104.501 912.62 103.22 910.131 102.699C906.891 102.059 903.454 101.819 900.095 101.939C897.409 102.019 894.722 102.139 892.075 102.219C887.096 102.419 882.118 102.579 877.14 102.779C867.618 103.14 858.214 104.901 848.811 106.742C845.057 107.463 841.264 108.143 837.55 108.984C835.693 109.424 833.836 109.905 831.979 110.465C830.359 110.946 828.977 111.266 827.91 112.507C827.831 112.747 827.752 112.867 827.633 112.987Z" fill="#254A69"/>
<path d="M799.107 90.7301C807.562 93.292 814.2 98.456 818.19 101.498C821.549 104.1 824.275 106.622 826.369 108.784C827.515 109.945 827.554 111.826 826.527 113.067L824.077 115.949C823.485 116.63 822.615 117.07 821.707 117.07H771.924C769.632 117.07 767.499 115.989 766.076 114.188C763.429 110.745 762.244 106.422 762.955 102.219C762.994 102.019 763.034 101.819 763.073 101.618C764.101 96.7347 767.815 92.8918 772.516 91.3706C778.917 89.3691 788.676 87.5677 799.107 90.7301Z" fill="#3B8486"/>
<path d="M894.367 153.378L884.213 119.952C883.699 118.271 881.961 117.35 880.301 117.871C878.642 118.391 877.733 120.153 878.247 121.834L888.401 155.259C888.678 156.18 889.626 156.66 890.535 156.38L893.3 155.499C894.13 155.219 894.644 154.258 894.367 153.378Z" fill="#F4FDFA" stroke="#2A6893" stroke-width="0.836956" stroke-miterlimit="10"/>
<path d="M893.853 147.053L888.598 129.72C888.322 128.879 887.452 128.399 886.583 128.639L881.052 130.36C880.222 130.64 879.748 131.521 879.985 132.402L885.24 149.735C885.516 150.575 886.386 151.056 887.255 150.816L892.786 149.094C893.655 148.814 894.13 147.893 893.853 147.053Z" fill="#254A69"/>
<path d="M776.428 78.1208L776.468 77.7606C776.626 76.2794 777.929 75.2387 779.352 75.3988L789.862 76.5196C791.324 76.6797 792.351 78.0007 792.193 79.4418L792.153 79.8021C791.995 81.2832 790.691 82.324 789.269 82.1639L778.759 81.043C777.297 80.9229 776.27 79.6019 776.428 78.1208Z" fill="#254A69"/>
<path d="M742.607 130.64L723.721 170.951C722.971 172.552 721.114 173.232 719.533 172.472C717.953 171.711 717.281 169.83 718.032 168.229L736.918 127.918" fill="#F4FDFA"/>
<path d="M742.607 130.64L723.721 170.951C722.971 172.552 721.114 173.232 719.533 172.472C717.953 171.711 717.281 169.83 718.032 168.229L736.918 127.918" stroke="#2A6893" stroke-width="0.836956" stroke-miterlimit="10"/>
<path d="M736.918 127.918L755.646 87.928C756.278 86.607 757.858 86.0066 759.162 86.6471L760.071 87.0875C761.375 87.7279 761.967 89.3291 761.335 90.6501L742.607 130.64" fill="#3B8486"/>
<path d="M736.207 127.598L744.78 109.264C745.452 107.863 747.072 107.263 748.455 107.943L750.549 108.944C751.932 109.625 752.524 111.266 751.853 112.667L743.279 131.001C742.607 132.402 740.987 133.002 739.604 132.322L737.511 131.321C736.167 130.64 735.574 128.999 736.207 127.598Z" fill="#0D314F"/>
<path d="M798.358 156.019L818.034 157.5C821.748 157.781 824.593 160.503 824.593 163.745V164.946C824.593 168.309 821.55 171.111 817.718 171.231L798.555 171.871C794.881 171.991 791.681 169.629 791.206 166.427L790.693 163.105C790.061 159.142 793.814 155.699 798.358 156.019Z" fill="#0A3150"/>
<path d="M853.908 176.235C850.668 177.155 847.428 178.076 844.188 178.997C841.62 179.717 838.973 180.078 836.286 180.078H789.98C787.728 180.078 785.752 178.596 785.081 176.395C782.631 168.149 780.181 159.942 777.732 151.696C777.06 149.414 777.337 146.973 778.562 144.931C778.917 144.331 779.391 143.77 779.944 143.21C782.315 140.888 785.081 140.648 785.831 140.608L784.567 135.884C783.579 135.964 779.154 136.325 775.638 140.128C775.519 140.248 775.401 140.408 775.282 140.528C772.477 143.77 771.647 148.254 772.833 152.377L780.497 178.356C781.762 182.64 785.673 185.602 790.059 185.602H836.839C839.842 185.602 842.805 185.161 845.689 184.321L854.777 181.599" fill="#E1B77D"/>
<path d="M857.307 183.8L854.738 181.559C853.632 180.598 853.197 179.077 853.553 177.676L854.422 174.353C854.738 173.192 855.568 172.312 856.635 171.952L894.367 160.183C895.434 159.862 896.58 160.103 897.449 160.823L900.136 163.025C901.281 163.986 901.795 165.587 901.36 167.068L900.373 170.43C900.057 171.551 899.227 172.392 898.2 172.752L860.467 184.521C859.361 184.841 858.176 184.561 857.307 183.8Z" fill="#899BAB"/>
<path d="M781.644 104.421C782.954 104.421 784.015 103.345 784.015 102.019C784.015 100.692 782.954 99.6169 781.644 99.6169C780.335 99.6169 779.274 100.692 779.274 102.019C779.274 103.345 780.335 104.421 781.644 104.421Z" fill="#FFFDF7"/>
<path d="M785.161 101.778C785.003 102.739 784.805 103.66 784.608 104.621C784.529 104.981 784.845 105.261 785.2 105.221C786.07 105.061 787.334 104.741 788.598 103.9C789.428 103.38 790.021 102.739 790.495 102.219C790.771 101.899 790.534 101.378 790.1 101.378H785.674C785.398 101.378 785.2 101.538 785.161 101.778Z" fill="#FFFDF7"/>
<path d="M778.089 101.778C778.247 102.739 778.445 103.66 778.642 104.621C778.722 104.981 778.405 105.261 778.05 105.221C777.181 105.061 775.916 104.741 774.652 103.9C773.822 103.38 773.19 102.739 772.756 102.219C772.479 101.899 772.716 101.378 773.151 101.378H777.576C777.852 101.378 778.05 101.538 778.089 101.778Z" fill="#FFFDF7"/>
<path d="M779.274 106.542V106.222C779.274 105.781 779.59 105.461 780.024 105.461H783.225C783.659 105.461 783.975 105.822 783.975 106.222V106.542C783.975 106.982 783.62 107.303 783.225 107.303H780.024C779.629 107.303 779.274 106.942 779.274 106.542Z" fill="#FFFDF7"/>
<path d="M827.397 162.184C827.515 162.384 828.187 163.745 828.424 163.745C829.056 163.745 829.609 164.106 830.242 164.186C830.874 164.226 831.506 164.146 832.138 164.026C833.323 163.745 834.39 163.185 835.417 162.585C836.721 161.864 838.065 161.023 838.697 159.582C837.156 157.461 835.615 155.339 834.153 153.177C832.889 151.296 831.98 149.375 829.807 148.934C828.701 148.694 827.594 148.894 826.646 149.335C824.75 150.175 823.288 151.897 822.616 154.058C822.498 154.458 822.379 154.939 822.537 155.379C822.695 155.819 823.169 156.26 823.485 156.62C824.315 157.661 825.066 158.742 825.856 159.863C826.37 160.583 826.883 161.384 827.397 162.184Z" fill="#E29B7F"/>
<path d="M805.627 143.931C808.866 147.573 812.106 151.176 815.346 154.819C816.966 156.62 818.546 158.461 820.206 160.263C821.707 161.864 823.604 161.063 825.382 160.143C826.014 159.822 826.646 159.502 827.239 159.142C829.175 158.101 831.071 156.94 832.889 155.739C833.837 155.099 836.247 154.178 836.445 152.897C836.682 151.216 833.916 148.934 832.968 147.773C831.466 145.972 830.004 144.171 828.503 142.369C823.841 136.725 819.139 131.081 814.477 125.477C817.598 125.156 820.68 124.676 823.604 124.156C829.53 123.115 835.417 122.074 841.304 120.993C846.125 120.113 851.419 118.671 855.172 115.229C858.017 112.587 858.965 108.904 859.163 105.141C859.4 100.698 859.321 95.8943 857.938 91.6111C857.741 91.0106 857.464 90.2901 856.95 89.8898C856.358 89.4094 855.568 89.5695 855.014 89.0892C853.711 88.0084 853.75 85.9268 852.051 85.0461C850.787 84.3656 849.246 84.7659 847.863 85.2462C844.663 86.3271 841.581 87.6881 838.618 89.3293C836.089 90.7304 833.56 92.4517 832.494 95.1737C832.414 95.3739 832.336 95.614 832.138 95.7341C831.94 95.8942 831.664 95.8542 831.427 95.8542C829.372 95.7742 827.239 95.9743 825.421 96.9751C824.671 97.3754 823.959 97.9358 823.288 98.4562C821.312 99.9773 819.258 102.139 816.887 102.86C814.2 103.66 811.395 104.181 808.708 104.821C804.007 105.942 796.223 108.224 792.904 112.387C791.798 113.387 791.521 114.708 791.126 116.43C788.321 128.199 798.87 136.365 805.627 143.931Z" fill="#063146" stroke="#3B8486" stroke-width="0.836956" stroke-miterlimit="10"/>
<path d="M800.293 65.4313C801.36 60.7878 802.347 56.1444 803.414 51.5409C803.691 50.3 804.007 49.019 804.284 47.7781C804.837 45.4563 805.429 43.1346 806.457 40.9329C806.931 39.9321 807.642 39.0915 808.472 38.371C809.025 37.8906 810.684 36.4495 811.435 36.5296C812.936 36.6897 814.477 41.5734 814.872 42.9344C815.504 45.2561 815.109 47.9782 814.991 50.38C814.912 52.1013 815.899 54.1429 816.255 55.7841C817.164 59.8272 818.428 64.8309 817.598 68.954C816.176 68.6338 800.372 65.0711 800.293 65.4313Z" fill="#D84545"/>
<path d="M820.442 179.277C821.627 179.237 823.01 179.397 824.156 179.117C825.578 178.756 827.119 177.676 828.423 176.995C831.228 175.474 833.994 173.833 836.878 172.472C838.893 171.511 840.987 170.75 842.844 169.55C843.397 169.189 843.99 168.789 844.306 168.229C845.017 167.028 843.99 166.467 843.476 165.586C842.923 164.706 842.41 163.785 841.896 162.865C841.224 161.704 840.553 160.543 839.841 159.422C839.091 158.141 838.024 159.302 837.471 160.062C835.851 162.304 833.362 162.344 830.873 162.224C829.924 162.184 829.055 161.904 828.107 161.824C827.593 161.784 827.159 162.144 827.04 162.624C826.289 165.627 824.788 169.95 821.509 174.153C820.718 175.194 818.427 176.795 818.506 178.116C818.506 178.396 818.624 178.716 818.822 178.917C819.098 179.197 819.533 179.277 820.007 179.317C820.126 179.277 820.284 179.277 820.442 179.277Z" fill="#063146" stroke="#3B8486" stroke-width="0.836956" stroke-miterlimit="10"/>
<path d="M847.744 98.496C850.905 97.5753 854.026 96.4145 857.029 95.0134C858.886 94.1328 859.676 94.2127 859.123 92.1312C858.688 90.4899 858.214 88.8888 857.74 87.2876C854.895 77.4802 851.616 67.7929 848.218 58.1857C846.559 53.5422 845.294 48.3382 843.082 43.9349C841.146 40.1721 837.787 37.0497 834.271 34.888C832.019 33.527 829.648 32.4863 827.199 31.6457C824.393 30.6849 822.655 30.1245 819.889 31.2053C817.677 32.0459 815.504 33.0467 813.37 34.1676C811.158 35.3285 810.051 36.8896 808.51 38.9311C808.234 39.2914 807.997 39.6117 807.72 39.972C807.246 40.5724 806.811 41.2128 806.456 41.8933C804.006 46.1766 804.638 51.5006 805.468 56.2241C806.416 61.7083 808.431 66.8722 810.091 72.1562C810.604 73.7574 810.96 75.3986 811.355 76.9999C812.106 80.0021 812.856 83.0444 813.607 86.0466C814.279 88.8087 814.792 91.6108 815.504 94.3729C815.899 96.0141 815.938 97.8555 816.136 99.5368C816.215 100.337 816.215 101.178 816.412 101.939C816.61 102.699 817.045 102.499 817.677 102.339C819.297 101.939 820.917 101.458 822.576 101.258C824.472 101.018 826.369 100.978 828.265 101.058C830.636 101.098 833.007 101.058 835.377 100.818C839.486 100.458 843.675 99.6569 847.744 98.496Z" fill="#D84545"/>
<path d="M818.428 19.5166C818.507 22.9992 820.403 26.1216 822.26 29.0438C822.932 30.0846 824.077 30.8451 825.144 31.4055C825.263 31.4456 825.381 31.5257 825.421 31.6458C825.46 31.7658 825.46 31.926 825.421 32.0461C824.749 34.2077 822.774 35.6487 820.759 36.6895C818.349 37.9705 815.504 38.8512 812.896 38.0506C812.382 37.8905 811.829 37.6502 811.513 37.2099C810.683 36.1291 811.829 35.2885 812.264 34.4078C812.817 33.287 812.896 31.966 812.699 30.725C812.422 29.0037 811.632 27.4426 810.881 25.9214" fill="#E29B7F"/>
<path d="M819.652 27.5228C820.244 26.442 819.573 26.0017 818.506 26.1217C816.135 26.3619 813.646 27.5228 811.671 28.8438C811.592 28.8838 811.513 28.9639 811.473 29.044C811.433 29.1641 811.433 29.2841 811.473 29.4042C811.592 30.2448 811.75 31.0855 811.868 31.9261C813.804 31.9261 815.78 31.3257 817.36 30.1248C818.269 29.4442 819.059 28.5636 819.652 27.5228Z" fill="#C66D58"/>
<path d="M799.7 13.9525C799.542 11.911 799.186 9.38902 800.055 7.46757C802.149 2.90413 809.617 2.74405 813.449 4.30522C817.874 6.10658 821.193 10.4699 821.904 15.3135C822.655 20.1572 820.838 25.321 817.361 28.6836C815.701 30.2848 813.647 31.5257 811.434 31.926C809.182 32.3263 806.772 31.886 804.994 30.4049C803.256 29.0038 802.268 26.8422 801.596 24.6805C800.49 21.2379 799.976 17.5953 799.7 13.9525Z" fill="#E29B7F"/>
<path d="M797.567 7.74777C797.409 7.14732 797.488 6.5068 797.725 5.90634C798.357 4.10499 799.819 2.66392 801.478 1.82329C803.177 0.982653 805.074 0.702384 806.931 0.662354C808.116 0.662354 809.301 0.742492 810.447 1.14279C811.593 1.5431 812.58 2.30361 813.134 3.38442C816.255 1.98337 819.297 2.30367 822.023 4.54536C823.959 6.14656 825.342 8.4282 826.093 10.87C826.765 12.9516 827.041 15.2734 826.449 17.395C825.895 19.5166 824.394 21.4781 822.379 22.1586C823.604 22.9192 823.367 25.1208 822.102 25.8414C820.996 26.4819 819.179 26.1216 818.27 25.2009C817.914 24.8406 816.848 20.7976 817.282 20.6375C818.428 20.2372 819.337 19.2364 819.653 18.0355C819.969 16.8346 819.692 15.5136 818.902 14.5929C818.626 14.2326 818.27 13.9524 817.835 13.8723C817.045 13.7522 816.334 14.3927 815.899 15.0732C815.465 15.7537 815.149 16.5544 814.477 17.0347C814.635 15.9139 814.121 14.8331 813.489 13.9124C812.857 12.9917 812.067 12.1911 811.553 11.2304C811.04 10.2696 810.803 9.02872 811.277 8.02796C809.262 7.70772 807.207 7.42751 805.153 7.62766C804.007 7.74775 802.9 7.86782 801.755 8.108C800.885 8.30815 799.74 8.94864 798.791 8.9086C798.317 8.94864 797.843 8.62843 797.567 7.74777Z" fill="#003156"/>
<path d="M807.326 17.275L806.812 15.6338C806.654 15.1134 806.97 14.5529 807.523 14.4728C807.918 14.4328 808.314 14.673 808.432 15.0733L809.064 17.0748" stroke="#003156" stroke-width="0.836956" stroke-miterlimit="10" stroke-linecap="round"/>
<path d="M802.664 18.0755L802.15 16.4343C801.992 15.9139 802.308 15.3534 802.861 15.2734C803.256 15.2333 803.651 15.4735 803.77 15.8738L804.402 17.8753" stroke="#003156" stroke-width="0.836956" stroke-miterlimit="10" stroke-linecap="round"/>
<path d="M803.928 24.5205C804.402 24.7206 805.943 25.3211 807.879 24.8407C809.973 24.2803 811.119 22.7592 811.395 22.3589" stroke="#003156" stroke-width="0.836956" stroke-miterlimit="10" stroke-linecap="round"/>
<path d="M819.889 66.1515C819.414 66.6318 819.335 67.3123 818.94 67.7527C818.269 68.5533 817.241 68.9535 816.293 69.2338C808.628 71.5555 800.686 72.8365 792.784 73.9974C786.344 74.9181 787.253 74.6779 785.752 74.9581C780.023 76.119 775.202 77.0397 773.938 80.4823C773.148 82.6439 773.622 85.406 775.321 87.0872C777.178 88.9286 780.655 88.6885 782.433 87.0872C783.5 86.1265 784.369 84.8855 785.594 84.125C786.66 83.4444 788.32 83.3644 789.545 83.1643C794.523 82.4037 799.501 81.8833 804.519 81.3629C809.655 80.8025 814.91 80.9226 820.007 80.0419C824.235 79.3214 829.569 77.9203 831.346 73.517C833.678 67.7526 835.06 61.588 836.996 55.7035C837.826 53.1416 841.145 48.3781 836.759 47.2572C835.218 46.8569 833.559 47.4574 832.137 48.2179C829.213 49.8191 826.763 52.3411 825.222 55.3433C824.037 57.585 823.207 61.3879 821.627 64.19C821.113 65.0707 820.521 65.511 819.889 66.1515Z" fill="#E29B7F"/>
<path d="M836.089 36.5294C833.087 34.728 829.452 33.9674 826.014 34.4077C823.723 34.728 821.708 35.6487 820.048 37.2899C818.468 38.8511 818.547 41.0528 818.27 43.1744C817.796 47.0573 817.282 50.9803 816.808 54.8632C816.532 56.9848 816.374 58.9863 815.583 60.9878C815.346 61.5883 814.24 67.4326 814.082 67.4326C821.628 67.1924 829.135 67.3125 836.603 67.8329C836.998 64.7106 837.314 61.4681 838.104 58.4258C838.815 55.6237 839.685 52.8216 840.712 50.0995C841.779 47.3375 843.162 44.9757 841.621 42.2537C840.554 40.4123 839.132 38.771 837.472 37.49C837.038 37.1698 836.563 36.8496 836.089 36.5294Z" fill="#D84545"/>
<path d="M817.993 38.691L814.595 40.8927L812.58 38.8111L813.963 36.0491L815.583 36.009L817.993 38.691Z" fill="#B71D37"/>
<path opacity="0.7" d="M806.179 52.7016C806.258 54.2228 806.416 55.7039 806.614 57.2251C807.009 60.2273 807.918 63.1896 808.273 66.1518C806.693 63.8301 805.31 60.2674 804.678 57.3852C803.967 54.1428 804.243 50.46 806.061 48.3384C805.666 48.7387 806.14 52.0211 806.179 52.7016Z" fill="#B71D37"/>
<path d="M819.138 41.3331L825.894 32.0061L823.287 29.8044L815.582 36.0091L819.138 41.3331Z" fill="white"/>
<path d="M810.803 36.8499L811.909 42.1739L813.964 36.0493L812.502 33.6475L810.803 36.8499Z" fill="white"/>
<path opacity="0.7" d="M836.366 65.6714L841.068 43.6948L838.223 67.9531L832.178 67.5929L836.366 65.6714Z" fill="#B71D37"/>
<path d="M814.121 67.4727L815.978 67.4326L822.695 38.8911L814.121 67.4727Z" fill="#B71D37"/>
<path d="M737.037 41.0127L743.359 39.972L744.505 31.0852C744.663 29.7642 746.559 29.7642 746.757 31.0852L747.863 39.8919L754.185 41.0127C755.212 41.1728 755.212 43.0943 754.185 43.2944L747.942 44.4554L746.757 53.302C746.599 54.623 744.702 54.623 744.505 53.302L743.24 44.3753L736.998 43.2944C736.01 43.0943 736.01 41.1728 737.037 41.0127Z" fill="#FFA847"/>
<path d="M857.543 27.7227L863.865 26.6819L865.011 17.7952C865.169 16.4742 867.065 16.4742 867.263 17.7952L868.369 26.6018L874.691 27.7227C875.718 27.8828 875.718 29.8042 874.691 30.0044L868.448 31.1653L867.263 40.0119C867.105 41.3329 865.208 41.3329 865.011 40.0119L863.746 31.0852L857.504 30.0044C856.516 29.8443 856.516 27.8828 857.543 27.7227Z" fill="#FFA847"/>
<path d="M687.372 112.307L692.548 111.466L693.496 104.18C693.654 103.1 695.195 103.1 695.353 104.18L696.262 111.386L701.438 112.307C702.268 112.467 702.268 114.028 701.438 114.188L696.341 115.109L695.353 122.354C695.195 123.435 693.654 123.435 693.496 122.354L692.469 115.069L687.372 114.188C686.543 114.028 686.543 112.427 687.372 112.307Z" fill="#FFA847"/>
<path d="M910.882 68.7138L916.058 67.8732L917.006 60.5877C917.164 59.5069 918.705 59.5069 918.863 60.5877L919.772 67.7931L924.948 68.7138C925.777 68.8739 925.777 70.4351 924.948 70.5552L919.851 71.5159L918.863 78.7614C918.705 79.8422 917.164 79.8422 917.006 78.7614L915.979 71.4759L910.882 70.5952C910.052 70.4351 910.052 68.8739 910.882 68.7138Z" fill="#FFA847"/>
</svg>
