<svg width="21" height="15" viewBox="0 0 21 15" fill="none" xmlns="http://www.w3.org/2000/svg">
<path d="M8.42993 10.6624L13.6199 7.66235L8.42993 4.66235V10.6624ZM19.9899 2.83235C20.1199 3.30235 20.2099 3.93235 20.2699 4.73235C20.3399 5.53235 20.3699 6.22235 20.3699 6.82235L20.4299 7.66235C20.4299 9.85235 20.2699 11.4624 19.9899 12.4924C19.7399 13.3924 19.1599 13.9724 18.2599 14.2224C17.7899 14.3524 16.9299 14.4424 15.6099 14.5024C14.3099 14.5724 13.1199 14.6024 12.0199 14.6024L10.4299 14.6624C6.23993 14.6624 3.62993 14.5024 2.59993 14.2224C1.69993 13.9724 1.11993 13.3924 0.869932 12.4924C0.739932 12.0224 0.649932 11.3924 0.589932 10.5924C0.519932 9.79235 0.489932 9.10235 0.489932 8.50235L0.429932 7.66235C0.429932 5.47235 0.589932 3.86235 0.869932 2.83235C1.11993 1.93235 1.69993 1.35235 2.59993 1.10235C3.06993 0.972354 3.92993 0.882353 5.24993 0.822353C6.54993 0.752353 7.73993 0.722353 8.83993 0.722353L10.4299 0.662354C14.6199 0.662354 17.2299 0.822354 18.2599 1.10235C19.1599 1.35235 19.7399 1.93235 19.9899 2.83235Z" fill="black"/>
</svg>
