<svg width="20" height="21" viewBox="0 0 20 21" fill="none" xmlns="http://www.w3.org/2000/svg">
<path d="M17.7778 0.662354C18.3671 0.662354 18.9324 0.89648 19.3491 1.31323C19.7659 1.72997 20 2.29521 20 2.88458V18.4401C20 19.0295 19.7659 19.5947 19.3491 20.0115C18.9324 20.4282 18.3671 20.6624 17.7778 20.6624H2.22222C1.63285 20.6624 1.06762 20.4282 0.650874 20.0115C0.234126 19.5947 0 19.0295 0 18.4401V2.88458C0 2.29521 0.234126 1.72997 0.650874 1.31323C1.06762 0.89648 1.63285 0.662354 2.22222 0.662354H17.7778ZM17.2222 17.8846V11.9957C17.2222 11.035 16.8406 10.1137 16.1613 9.43439C15.482 8.75509 14.5607 8.37346 13.6 8.37346C12.6556 8.37346 11.5556 8.95124 11.0222 9.81791V8.58458H7.92222V17.8846H11.0222V12.4068C11.0222 11.5512 11.7111 10.8512 12.5667 10.8512C12.9792 10.8512 13.3749 11.0151 13.6666 11.3069C13.9583 11.5986 14.1222 11.9942 14.1222 12.4068V17.8846H17.2222ZM4.31111 6.84013C4.80618 6.84013 5.28098 6.64347 5.63104 6.2934C5.98111 5.94333 6.17778 5.46854 6.17778 4.97346C6.17778 3.94013 5.34444 3.09569 4.31111 3.09569C3.81309 3.09569 3.33547 3.29352 2.98332 3.64568C2.63117 3.99783 2.43333 4.47545 2.43333 4.97346C2.43333 6.0068 3.27778 6.84013 4.31111 6.84013ZM5.85556 17.8846V8.58458H2.77778V17.8846H5.85556Z" fill="black"/>
</svg>
