<svg width="20" height="21" viewBox="0 0 20 21" fill="none" xmlns="http://www.w3.org/2000/svg">
<path d="M7.04 20.2024C8 20.4924 8.97 20.6624 10 20.6624C12.6522 20.6624 15.1957 19.6088 17.0711 17.7334C18.9464 15.8581 20 13.3145 20 10.6624C20 9.34913 19.7413 8.04877 19.2388 6.83552C18.7362 5.62226 17.9997 4.51987 17.0711 3.59129C16.1425 2.6627 15.0401 1.92611 13.8268 1.42356C12.6136 0.921011 11.3132 0.662354 10 0.662354C8.68678 0.662354 7.38642 0.921011 6.17317 1.42356C4.95991 1.92611 3.85752 2.6627 2.92893 3.59129C1.05357 5.46665 0 8.01019 0 10.6624C0 14.9124 2.67 18.5624 6.44 20.0024C6.35 19.2224 6.26 17.9324 6.44 17.0424L7.59 12.1024C7.59 12.1024 7.3 11.5224 7.3 10.6024C7.3 9.22235 8.16 8.19235 9.14 8.19235C10 8.19235 10.4 8.82235 10.4 9.63235C10.4 10.4924 9.83 11.7224 9.54 12.9024C9.37 13.8824 10.06 14.7424 11.06 14.7424C12.84 14.7424 14.22 12.8424 14.22 10.1624C14.22 7.76235 12.5 6.12235 10.03 6.12235C7.21 6.12235 5.55 8.22235 5.55 10.4324C5.55 11.2924 5.83 12.1624 6.29 12.7324C6.38 12.7924 6.38 12.8724 6.35 13.0224L6.06 14.1124C6.06 14.2824 5.95 14.3424 5.78 14.2224C4.5 13.6624 3.76 11.8424 3.76 10.3724C3.76 7.21235 6 4.34235 10.32 4.34235C13.76 4.34235 16.44 6.81235 16.44 10.0924C16.44 13.5324 14.31 16.2924 11.26 16.2924C10.29 16.2924 9.34 15.7724 9 15.1624L8.33 17.5324C8.1 18.3924 7.47 19.5424 7.04 20.2324V20.2024Z" fill="black"/>
</svg>
