<svg width="20" height="21" viewBox="0 0 20 21" fill="none" xmlns="http://www.w3.org/2000/svg">
<path d="M5.8 0.662354H14.2C17.4 0.662354 20 3.26235 20 6.46235V14.8624C20 16.4006 19.3889 17.8759 18.3012 18.9636C17.2135 20.0513 15.7383 20.6624 14.2 20.6624H5.8C2.6 20.6624 0 18.0624 0 14.8624V6.46235C0 4.9241 0.61107 3.44885 1.69878 2.36113C2.78649 1.27342 4.26174 0.662354 5.8 0.662354ZM5.6 2.66235C4.64522 2.66235 3.72955 3.04164 3.05442 3.71677C2.37928 4.3919 2 5.30757 2 6.26235V15.0624C2 17.0524 3.61 18.6624 5.6 18.6624H14.4C15.3548 18.6624 16.2705 18.2831 16.9456 17.6079C17.6207 16.9328 18 16.0171 18 15.0624V6.26235C18 4.27235 16.39 2.66235 14.4 2.66235H5.6ZM15.25 4.16235C15.5815 4.16235 15.8995 4.29405 16.1339 4.52847C16.3683 4.76289 16.5 5.08083 16.5 5.41235C16.5 5.74387 16.3683 6.06182 16.1339 6.29624C15.8995 6.53066 15.5815 6.66235 15.25 6.66235C14.9185 6.66235 14.6005 6.53066 14.3661 6.29624C14.1317 6.06182 14 5.74387 14 5.41235C14 5.08083 14.1317 4.76289 14.3661 4.52847C14.6005 4.29405 14.9185 4.16235 15.25 4.16235ZM10 5.66235C11.3261 5.66235 12.5979 6.18914 13.5355 7.12682C14.4732 8.0645 15 9.33627 15 10.6624C15 11.9884 14.4732 13.2602 13.5355 14.1979C12.5979 15.1356 11.3261 15.6624 10 15.6624C8.67392 15.6624 7.40215 15.1356 6.46447 14.1979C5.52678 13.2602 5 11.9884 5 10.6624C5 9.33627 5.52678 8.0645 6.46447 7.12682C7.40215 6.18914 8.67392 5.66235 10 5.66235ZM10 7.66235C9.20435 7.66235 8.44129 7.97842 7.87868 8.54103C7.31607 9.10364 7 9.8667 7 10.6624C7 11.458 7.31607 12.2211 7.87868 12.7837C8.44129 13.3463 9.20435 13.6624 10 13.6624C10.7956 13.6624 11.5587 13.3463 12.1213 12.7837C12.6839 12.2211 13 11.458 13 10.6624C13 9.8667 12.6839 9.10364 12.1213 8.54103C11.5587 7.97842 10.7956 7.66235 10 7.66235Z" fill="black"/>
</svg>
